<?xml version="1.0" encoding="utf-8"?>
<!-- Generator: Adobe Illustrator 21.1.0, SVG Export Plug-In . SVG Version: 6.00 Build 0)  -->
<svg version="1.1" id="Design" xmlns="http://www.w3.org/2000/svg" xmlns:xlink="http://www.w3.org/1999/xlink" x="0px" y="0px"
	 width="207px" height="247.6px" viewBox="0 0 207 247.6" style="enable-background:new 0 0 207 247.6;" xml:space="preserve">
<style type="text/css">
	.st0{fill:#54C1C8;}
	.st1{fill:#CDDDE6;}
	.st2{fill:#FFFFFF;}
</style>
<g>
	<g>
		<g>
			<path class="st0" d="M61.4,13.9c-27.3,11-47.3,38.4-49.3,67.8c-0.6,8.9,0.4,18.2,4.9,25.9c4.5,7.7,26.9,26.5,35.8,25.7
				c6.9-0.6,12.9-4.9,18.5-9.1c21.9-16.2,43.9-32.4,65.8-48.7c5.8-4.3,11.1-10.8,12.9-17.7c1.5-5.7,1.8-19.1-7.1-29.6
				c-3.6-4.3-11.2-8.8-16-11.2c-12.8-6.4-27.4-9.4-41.7-8.5C77.1,9.1,69,10.9,61.4,13.9z"/>
		</g>
		<g>
			<path class="st1" d="M139.1,224.8h2.5v-7.5c1.1-22.4,10.8-31.7,16.5-35.3c6.8-4.3,8.6-4.7,13.9-5.8c1.5-0.3,3.3-0.7,5.6-1.3
				c1-0.2,2-0.5,3.1-0.7c4.3-1,8.7-2,12.8-4c6-2.9,10.1-7.4,11.3-12.5c1.3-5.3-0.9-10.8-2.9-15.6c-0.3-0.7-0.6-1.4-0.8-2.1
				c-0.6-1.7-0.4-3.6,0.5-5.1c0.3-0.4,0.6-0.8,0.9-1.2c0.5-0.6,1-1.2,1.4-1.9c1-1.9,1.1-4.2,0.1-6.1c-0.5-1-1.3-1.8-2.3-2.5
				c0.7-0.5,1.2-1.2,1.6-1.9c1.2-2.3,1-4.5-0.5-5.8c-2.4-2-4.5-3.9-5.1-6.4c-0.2-0.8-0.2-1.5,0-2.4c2.4-1.6,4.9-3.4,6.8-5.9
				c2.3-3,3-6.8,1.9-9.7c-1.1-2.9-3.8-4.8-5.9-6.3c-1.8-1.2-3.6-2.4-5.3-3.5c-4.9-3.1-9.5-6.1-13-10.5c-2.8-3.5-4.3-7.7-5.9-12.1
				c-0.6-1.8-1.3-3.7-2.1-5.4c-3.8-8.9-9.9-16.5-15.8-23.9c-6.6-8.3-19-16-22.6-18.2C117.3-0.1,102.1-0.5,85.7,0.2
				C66.8,1,48.6,7,34.4,17.2c-9.9,7.2-18.3,16.9-24.3,28c-6,11.1-9.5,23.5-10,35.7c-0.5,12.2,1.8,24.8,6.8,36.5
				c5,11.6,12.5,22,21.7,30c7.9,6.9,12.7,11.6,19.7,19.6c12.2,13.9,15,35.3,6.7,51.9l2.2,1.1c8.7-17.5,5.8-40-7.1-54.6
				c-7-8-11.9-12.8-19.9-19.8c-9-7.8-16.3-17.9-21.1-29.1C4.3,105.1,2.1,92.9,2.6,81c0.5-11.9,3.9-23.8,9.7-34.6
				c5.8-10.8,14-20.2,23.6-27.1C49.7,9.3,67.4,3.4,85.8,2.7c19.4-0.8,32.3,0.6,48.8,10.6c3.5,2.1,15.6,9.7,21.9,17.7
				c5.8,7.2,11.8,14.7,15.4,23.3c0.7,1.7,1.4,3.6,2,5.3c1.6,4.4,3.2,9,6.3,12.8c3.7,4.7,8.8,7.9,13.6,11c1.7,1.1,3.5,2.3,5.2,3.4
				c2.3,1.6,4.2,3.1,5,5.1c1,2.6-0.1,5.5-1.5,7.3c-1.7,2.3-4.2,3.9-6.6,5.5c-0.2,0.2-0.4,0.4-0.5,0.7c-0.4,1.5-0.5,2.7-0.1,4.1
				c0.9,3.5,3.8,5.9,6,7.7c0.6,0.5,0.4,1.7-0.1,2.7c-0.5,1-1.6,1.7-2.7,1.9c-0.6,0.1-1.1,0.6-1.1,1.2c0,0.6,0.5,1.2,1.1,1.3
				c1.3,0.2,2.9,1.3,3.5,2.4c0.6,1.2,0.6,2.6-0.1,3.8c-0.3,0.5-0.7,1-1.1,1.5c-0.4,0.4-0.7,0.9-1.1,1.4c-1.4,2.2-1.7,5-0.8,7.4
				c0.3,0.7,0.6,1.4,0.8,2.1c1.9,4.7,3.9,9.6,2.7,14.1c-1.1,4.4-4.7,8.3-10,10.9c-3.8,1.8-8.2,2.8-12.3,3.8c-1,0.2-2.1,0.5-3.1,0.7
				c-2.2,0.5-4,0.9-5.5,1.3c-5.5,1.2-7.5,1.6-14.7,6.2c-6.6,4.1-11.4,10.7-14.4,19.6c-1.8,5.3-2.9,11.4-3.2,17.7c0,0,0,0,0,0.1
				V224.8z"/>
		</g>
		<g>
			<path class="st1" d="M146.1,92.4c2.9,0,5.7-0.6,8.4-1.8c5.2-2.3,9.6-6.9,12-12.5c0.3-0.6,0-1.4-0.6-1.7c-0.6-0.3-1.4,0-1.7,0.6
				c-2.2,5.1-6.2,9.1-10.8,11.2c-4.6,2-9.9,2.1-14.5,0.1c-0.6-0.3-1.4,0-1.6,0.7c-0.3,0.6,0,1.4,0.7,1.6
				C140.6,91.8,143.3,92.4,146.1,92.4z"/>
		</g>
		<g>
			<path class="st1" d="M37.3,229.7c0-9.8,8-17.9,17.9-17.9c9.8,0,17.9,8,17.9,17.9c0,9.8-8,17.9-17.9,17.9
				C45.4,247.6,37.3,239.5,37.3,229.7z M39.9,229.7c0,8.5,6.9,15.4,15.4,15.4c8.5,0,15.4-6.9,15.4-15.4c0-8.5-6.9-15.4-15.4-15.4
				C46.7,214.3,39.9,221.2,39.9,229.7z"/>
		</g>
		<g>
			<path class="st1" d="M43.7,229.7c0-6.3,5.2-11.5,11.5-11.5c6.3,0,11.5,5.2,11.5,11.5s-5.2,11.5-11.5,11.5
				C48.9,241.2,43.7,236,43.7,229.7z M46.2,229.7c0,5,4,9,9,9c5,0,9-4,9-9s-4-9-9-9C50.3,220.7,46.2,224.7,46.2,229.7z"/>
		</g>
		<g>
			<circle class="st0" cx="55.2" cy="229.7" r="8.1"/>
		</g>
		<g>
			<g>
				<path class="st2" d="M22,92.9c1.2,2.3,3,4.1,5,5.3c2.3,1.3,4.9,1.7,7.4,1.3c0.6,3,2.9,5.5,5.9,6.2c0,0,0.1,0,0.1,0
					c-0.6,2.9,0,5.9,1.7,8.4c1.7,2.5,4.3,4.3,7.3,5c2.4,0.5,5.2,0.3,8-0.6c0.2-0.1,0.4-0.1,0.6-0.2c2.2-0.8,4.1-2,5.6-3.4
					c0.3,0.5,0.7,1,1,1.5c0.2,0.4,0.4,0.7,0.6,1.1c1,1.6,2.1,2.6,3.4,3c1,0.3,2,0.3,3-0.1c0.9-0.3,1.7-0.9,2.2-1.7
					c0.7-1.1,0.8-2.4,0.9-3.5l0-0.3c0.6-6.9,4.2-13.8,9.8-18.3c0.1-0.1,0.1-0.1,0.2-0.2c1.1-0.1,2.1-0.3,3.2-0.7
					c2.6-0.9,4.9-2.7,6.5-5c1.5-2.2,2.4-4.9,2.5-7.7c0.7,0.7,1.5,1.3,2.4,1.7c2.1,1,4.6,1.4,7.3,1.2c1.3-0.1,2.5-0.4,3.7-0.9
					c2.6-1,5-2.6,6.6-4.7c2.1-2.8,2.9-6.3,2.2-9.4c2,0.8,4.4,0.6,6.3-0.1c0.2-0.1,0.3-0.1,0.5-0.2c4.5-1.9,7.8-6.2,8.4-10.9
					c0.5-4.4-1.5-8.9-5-11.6c0.2-0.2,0.4-0.4,0.6-0.7c2.8-3.3,3.7-8,2.4-12.1c-1.3-4-4.8-7.2-9-8.3c-3.6-1-7.7-0.4-11,1.5
					c0.6-3.4-0.4-7.1-2.7-9.9c-2.4-3-6.3-4.9-10.5-5.3c-3.8-0.4-8,0.5-11.7,2.4c-2.5,1.3-4.5,2.9-5.9,4.8c-1.4,1.9-2.2,4.2-2.1,6.3
					c-0.4,0.1-0.8,0.2-1.2,0.3c-2.6-3-6.6-5.2-11.1-5.9c-4-0.6-8.5-0.2-13,1.4c-4.1,1.4-7.6,3.4-10.3,6c-3.1,2.9-5.1,6.6-5.7,10.4
					c-0.5,3.3,0.1,6.6,1.7,9.2c-3.7-0.3-7.4,0.6-10.5,2.4c-4.1,2.4-7,6.6-7.6,11c-0.6,4.4,1.1,9,4.5,11.7c-1.3,1-2.4,2.2-3.3,3.6
					C19.7,81.6,19.3,87.9,22,92.9z M66.4,115.4c-0.4-0.7-0.8-1.4-1.3-2c1.9-2.5,2.7-5.6,2-8.3c0.2-0.1,0.5-0.1,0.7-0.2
					c0.8-0.3,1.6-0.7,2.3-1.1c2.8-1.7,4.9-4.2,5.8-7c0.3-1,0.5-1.9,0.5-2.9c1.6,1.3,3.5,2.2,5.6,2.5c-5.2,4.8-8.6,11.6-9.2,18.5
					l0,0.3c-0.1,1-0.1,1.9-0.6,2.6c-0.6,0.8-1.8,1.3-2.8,0.9c-0.9-0.3-1.6-1-2.4-2.2C66.8,116.1,66.6,115.7,66.4,115.4z M24.6,77.8
					c2.8-4.2,8.1-6.8,13.1-6.5c0.5,0,1-0.4,1-0.9c0-0.5-0.4-1-0.9-1c-3.5-0.2-7,0.8-10,2.7c-3.1-2.3-4.8-6.3-4.2-10.3
					c0.5-3.8,3.1-7.5,6.7-9.6c3.2-1.9,7.1-2.5,10.9-1.9c-1.9,3-2,6.9-0.2,9.8c0.2,0.4,0.7,0.6,1.2,0.4c0.1,0,0.1,0,0.2-0.1
					c0.5-0.3,0.6-0.9,0.4-1.3c-1.6-2.7-1.2-6.6,1.1-9.1c2.3-2.4,6.2-3.3,9.2-2c0.5,0.2,1.1,0,1.3-0.5c0.2-0.5,0-1-0.5-1.2
					c-3.7-1.6-8.3-0.7-11.2,2.2c0,0,0,0-0.1,0c-2-2.5-3-5.9-2.4-9.4c0.5-3.3,2.3-6.6,5.1-9.3c2.5-2.4,5.7-4.3,9.5-5.6
					c4.2-1.4,8.3-1.9,12-1.3c3.8,0.6,7.2,2.3,9.6,4.8c-0.5,0.3-0.9,0.6-1.3,0.9c-2.2,1.9-3.4,4.8-3.1,7.6c0.1,0.5,0.5,0.9,1.1,0.8
					c0.5-0.1,0.9-0.5,0.9-1.1c-0.2-2.2,0.7-4.5,2.5-6c1.7-1.5,4.2-2.1,6.4-1.6c2.2,0.5,4.1,2.2,4.8,4.2c0.2,0.5,0.7,0.7,1.2,0.5
					c0,0,0,0,0,0c0.5-0.2,0.8-0.7,0.6-1.2c-1-2.6-3.3-4.7-6.2-5.4c-0.6-0.1-1.2-0.2-1.9-0.2c-0.1-1.7,0.5-3.5,1.7-5.1
					c1.2-1.6,2.9-3,5.2-4.2c3.4-1.8,7.2-2.5,10.6-2.2c3.7,0.4,7.1,2.1,9.2,4.7c2.2,2.7,3,6.4,2,9.6c-0.1,0.4,0,0.7,0.3,1
					c0,0.2,0.1,0.3,0.2,0.5c0.3,0.4,0.9,0.5,1.4,0.1c3-2.3,7.1-3.1,10.8-2.1c3.6,1,6.6,3.7,7.7,7.1c1.1,3.4,0.4,7.5-2,10.3
					c-2.4,2.8-6.4,4.3-10,3.8c-0.5-0.1-1,0.3-1.1,0.8c-0.1,0.5,0.3,1,0.8,1.1c2.1,0.3,4.3,0.1,6.3-0.7c1.2-0.4,2.4-1.1,3.4-1.8
					c3.2,2.2,5.1,6.2,4.6,10.1c-0.5,4-3.3,7.7-7.2,9.3c-1.8,0.7-4.5,1.1-6.2-0.3c-0.2-0.1-0.4-0.2-0.6-0.2c0.7-0.7,1.2-1.6,1.6-2.4
					c0.9-2.5,0.3-5.3-1.6-6.8c-0.4-0.3-1-0.3-1.4,0.1c-0.4,0.4-0.3,1,0.1,1.3c1.3,1.1,1.7,3.1,1,4.8c-0.6,1.6-2.2,3-4.1,3.7
					c-1.7,0.6-3.8,0.7-5.9,0.3c-0.5-0.1-1,0.2-1.2,0.7c-0.1,0.5,0.2,1,0.7,1.1c2.5,0.5,4.9,0.4,7-0.4c0,0,0,0,0,0
					c0.7-0.3,1.4-0.6,2-1c0,0,0,0.1,0,0.1c1.3,2.9,0.7,6.6-1.4,9.3c-2,2.6-5.3,4.4-8.9,4.8c-2.3,0.2-4.4-0.1-6.2-1
					c-1.9-0.9-3.3-2.6-3.8-4.4c-0.1-0.5-0.7-0.8-1.2-0.7c-0.5,0.1-0.8,0.7-0.7,1.2c0,0.1,0,0.1,0.1,0.2c0,0.1,0,0.3,0,0.4
					c0.8,3.4,0.1,7.1-1.9,9.9c-2,2.9-5.4,4.8-8.8,4.9c-3.5,0.1-6.9-1.9-8.3-4.7c0-0.1-0.1-0.1-0.1-0.1c-0.3-0.6-0.6-1.2-1-1.8
					c-0.3-0.4-0.9-0.5-1.4-0.2C72.8,88,72.7,88.6,73,89c1.4,1.9,1.8,4.7,1,7.2c-0.8,2.4-2.5,4.5-4.9,5.9c-2.6,1.5-5.5,2-7.8,1.1
					c-2.5-0.9-4.1-3.5-3.5-5.8c0.1-0.5-0.2-1-0.7-1.1c-0.5-0.1-1.1,0.2-1.2,0.7c-0.8,3.2,1.3,6.7,4.7,7.9c1.4,0.5,3,0.7,4.6,0.5
					c0.5,2.2-0.1,4.8-1.7,6.9c-1.9,2.4-4.6,3.7-6.6,4.3c-2.5,0.8-4.9,1-6.9,0.5c-2.5-0.5-4.8-2.1-6.2-4.2c-1.4-2.1-1.9-4.7-1.4-7.2
					c0.8,0,1.5-0.2,2.3-0.5c1.6-0.6,3-1.7,3.9-3.1c0.3-0.5,0.1-1-0.3-1.3c-0.5-0.3-1.1-0.1-1.3,0.4c-1.2,1.9-3.7,3-6,2.5
					c-2.2-0.5-4.1-2.5-4.5-4.8c-0.4-2.2,0.5-4.7,2.2-6.3c0.1,0.1,0.2,0.1,0.3,0.2c2.1,1.2,4.8,1.4,7.1,0.5c0.8-0.3,1.6-0.7,2.2-1.2
					c0.4-0.3,0.5-0.9,0.2-1.3s-0.9-0.5-1.4-0.1c-2,1.5-4.9,1.8-7.1,0.5c-2.1-1.2-3.3-3.9-2.7-6.3c0.1-0.5-0.2-1-0.7-1.1
					c-0.5-0.1-1,0.2-1.2,0.8c-0.5,2.4,0.2,5,1.9,6.8c-1.7,1.7-2.7,3.9-2.8,6.1c0,0-0.1,0-0.1,0c-2,0.4-4.2,0-6.1-1
					c-1.8-1-3.3-2.6-4.3-4.5C21.4,87.7,21.8,82,24.6,77.8z"/>
			</g>
			<g>
				<path class="st2" d="M86.5,47.7c-0.9,2.2-0.4,4.9,1.2,6.6c0.4,0.4,0.3,1-0.1,1.3c-0.1,0.1-0.2,0.2-0.3,0.2
					c-0.4,0.1-0.8,0.1-1-0.2c-2.2-2.2-2.8-5.7-1.6-8.6c1.2-2.9,4.2-5,7.4-5.2c3.2-0.2,6.4,1.4,7.9,4.1c0.3,0.5,0.1,1-0.4,1.3
					c-0.5,0.3-1.1,0.1-1.3-0.4c-1.1-2.1-3.6-3.4-6-3.2C89.8,43.8,87.4,45.5,86.5,47.7z"/>
			</g>
			<g>
				<path class="st2" d="M55,69.7c0.5-0.1,1,0.2,1.2,0.7c0.1,0.5-0.2,1-0.7,1.1c-3.2,0.8-6,3.3-6.9,6.3c-0.9,3.1,0,6.6,2.4,8.6
					c2.4,2.1,6.2,2.6,9.1,1.1c0.5-0.2,1.1-0.1,1.3,0.4c0.2,0.5,0,1-0.5,1.3c-0.3,0.2-0.6,0.3-1,0.4c-3.4,1.2-7.5,0.6-10.3-1.8
					c-2.9-2.5-4.1-6.8-3-10.6C47.8,73.7,51.1,70.7,55,69.7z"/>
			</g>
			<g>
				<path class="st2" d="M61.5,79.5c2.3,1,5.1,0.9,7.3-0.3c2.3-1.2,3.9-3.4,4.3-5.9c0.4-2.1-0.2-4.3-1.6-6c-1,0.9-2.1,1.6-3.4,2.1
					c-0.7,0.3-1.5,0.4-2.3,0.5c-2.8,0.3-6.2-0.9-7.1-3.8c-0.2-0.5,0.1-1,0.6-1.2c0.5-0.2,1.1,0.1,1.2,0.6c0.6,1.9,3.1,2.8,5.1,2.6
					c2.4-0.3,4.7-1.7,5.9-3.8c1.2-2.1,1.3-4.8,0.2-6.8c-0.2-0.5,0-1,0.5-1.3c0.5-0.2,1.1-0.1,1.3,0.4c1.3,2.7,1.2,6-0.3,8.6
					c-0.2,0.3-0.3,0.5-0.5,0.8c1.5,1.7,2.3,4,2.3,6.3c2.4,2,6.3,2.3,9,0.5c2.8-1.8,4.1-5.6,2.9-8.6c-0.2-0.5,0.1-1,0.6-1.2
					c0.5-0.2,1.1,0,1.3,0.5c0.5,1.2,0.6,2.5,0.5,3.8c1.1,1.3,2.7,2.2,4.5,2.5c1.7,0.3,3.6,0,5.1-0.9c0.6-0.3,1.6-1,1.9-1.9
					c0.1-0.5,0.7-0.8,1.2-0.7c0.5,0.1,0.8,0.6,0.7,1.1c-0.4,1.6-1.8,2.5-2.8,3.1c-0.4,0.2-0.9,0.4-1.3,0.6c-1.6,0.6-3.4,0.8-5.1,0.5
					c-1.7-0.3-3.3-1-4.6-2.1c-0.7,1.9-1.9,3.7-3.7,4.8c-0.6,0.4-1.2,0.7-1.9,0.9c-2.8,1-6,0.7-8.5-0.8c-0.7,2.7-2.6,5.2-5.2,6.6
					c-0.4,0.2-0.8,0.4-1.3,0.6c-2.5,0.9-5.4,0.8-7.8-0.2c-0.5-0.2-0.7-0.8-0.4-1.3C60.4,79.5,61,79.2,61.5,79.5z"/>
			</g>
			<g>
				<path class="st2" d="M74.8,46.7c-0.3,0.4-0.9,0.5-1.4,0.2c-3-2.1-7.7-1.9-10.5,0.6c-2.8,2.5-3.5,7-1.6,10.1
					c0.3,0.4,0.1,1-0.3,1.3c-0.1,0-0.1,0.1-0.2,0.1c-0.4,0.2-0.9,0-1.2-0.4c-2.4-3.9-1.5-9.4,2-12.5c3.5-3.1,9.2-3.5,13-0.8
					C75,45.7,75.1,46.3,74.8,46.7z"/>
			</g>
		</g>
		<g>
			<path class="st0" d="M183,56.4l1.5-0.5c0.2,0.6,0.4,1.2,0.6,1.8l-1.5,0.5C183.4,57.6,183.2,57,183,56.4z M181.7,52.9l1.5-0.6
				c0.2,0.6,0.5,1.2,0.7,1.8l-1.5,0.5C182.2,54.1,181.9,53.5,181.7,52.9z M180.2,49.5l1.4-0.6c0.3,0.6,0.5,1.2,0.8,1.7l-1.4,0.6
				C180.8,50.6,180.5,50,180.2,49.5z M178.6,46.1l1.4-0.7c0.3,0.6,0.6,1.1,0.8,1.7l-1.4,0.7C179.2,47.2,178.9,46.7,178.6,46.1z
				 M176.9,42.8l1.4-0.8c0.3,0.5,0.6,1.1,0.9,1.7l-1.4,0.7C177.5,43.9,177.2,43.4,176.9,42.8z M175,39.6l1.3-0.8
				c0.3,0.5,0.7,1.1,1,1.6l-1.3,0.8C175.6,40.7,175.3,40.2,175,39.6z M172.9,36.5l1.3-0.9c0.4,0.5,0.7,1,1.1,1.6l-1.3,0.9
				C173.6,37.6,173.2,37,172.9,36.5z M170.7,33.5l1.2-1c0.4,0.5,0.8,1,1.1,1.5l-1.3,0.9C171.4,34.5,171.1,34,170.7,33.5z
				 M168.4,30.6l1.2-1c0.4,0.5,0.8,1,1.2,1.5l-1.2,1C169.2,31.6,168.8,31.1,168.4,30.6z M165.9,27.8l1.2-1.1
				c0.4,0.5,0.9,0.9,1.3,1.4l-1.2,1C166.7,28.8,166.3,28.3,165.9,27.8z M163.3,25.2l1.1-1.1c0.4,0.4,0.9,0.9,1.3,1.3l-1.1,1.1
				C164.2,26,163.8,25.6,163.3,25.2z M160.6,22.6l1-1.2c0.5,0.4,0.9,0.9,1.4,1.3l-1.1,1.1C161.5,23.4,161.1,23,160.6,22.6z
				 M157.8,20.2l1-1.2c0.5,0.4,1,0.8,1.5,1.2l-1,1.2C158.7,21,158.3,20.6,157.8,20.2z M154.8,17.9l0.9-1.3c0.5,0.4,1,0.8,1.5,1.2
				l-1,1.2C155.8,18.6,155.3,18.2,154.8,17.9z M151.8,15.7l0.9-1.3c0.5,0.4,1,0.7,1.6,1.1l-0.9,1.3
				C152.8,16.4,152.3,16.1,151.8,15.7z"/>
		</g>
		<g>
			<path class="st0" d="M67,200.9c0.1-0.6,0.2-1.2,0.3-1.8l1.6,0.2c-0.1,0.6-0.2,1.3-0.3,1.9L67,200.9z M67.4,197.3
				c0-0.6,0.1-1.2,0.1-1.8l1.6,0c0,0.6,0,1.3-0.1,1.9L67.4,197.3z M67.4,191.8l1.6-0.1c0.1,0.6,0.1,1.3,0.1,1.9l-1.6,0
				C67.5,193,67.4,192.4,67.4,191.8z M66.9,188.1l1.5-0.3c0.1,0.6,0.2,1.3,0.3,1.9l-1.6,0.2C67.1,189.3,67,188.7,66.9,188.1z
				 M66.1,184.5l1.5-0.4c0.2,0.6,0.3,1.2,0.4,1.9l-1.5,0.3C66.4,185.7,66.3,185.1,66.1,184.5z M65,181l1.5-0.5
				c0.2,0.6,0.4,1.2,0.6,1.8l-1.5,0.5C65.4,182.2,65.2,181.6,65,181z M63.7,177.5l1.4-0.6c0.3,0.6,0.5,1.2,0.7,1.8l-1.5,0.6
				C64.2,178.7,63.9,178.1,63.7,177.5z M62.1,174.2l1.4-0.7c0.3,0.6,0.6,1.1,0.9,1.7l-1.4,0.7C62.7,175.3,62.4,174.8,62.1,174.2z
				 M60.3,171l1.3-0.8c0.3,0.5,0.7,1.1,1,1.6l-1.4,0.8C60.9,172,60.6,171.5,60.3,171z M58.2,167.9l1.3-0.9c0.4,0.5,0.7,1.1,1.1,1.6
				l-1.3,0.9C58.9,168.9,58.6,168.4,58.2,167.9z M56.1,164.8l1.2-1c0.4,0.5,0.8,1,1.1,1.5l-1.3,0.9
				C56.8,165.8,56.4,165.3,56.1,164.8z M53.7,161.9l1.2-1c0.4,0.5,0.8,1,1.2,1.5l-1.2,1C54.5,162.9,54.1,162.4,53.7,161.9z
				 M51.3,159.1l1.2-1.1c0.4,0.5,0.8,0.9,1.3,1.4l-1.2,1C52.1,160.1,51.7,159.6,51.3,159.1z M48.7,156.4l1.1-1.1
				c0.4,0.5,0.9,0.9,1.3,1.4l-1.1,1.1C49.6,157.3,49.2,156.9,48.7,156.4z M46.1,153.8l1.1-1.1c0.4,0.4,0.9,0.9,1.3,1.3l-1.1,1.1
				C47,154.6,46.5,154.2,46.1,153.8z M44.4,152.1c-0.3-0.3-0.7-0.7-1-1l1.1-1.1c0.3,0.3,0.7,0.7,1,1l0.3,0.3l-1.1,1.1L44.4,152.1z
				 M40.6,148.6l1.1-1.2c0.5,0.4,0.9,0.9,1.4,1.3l-1.1,1.1C41.6,149.5,41.1,149,40.6,148.6z M37.9,146.1l1-1.2
				c0.5,0.4,0.9,0.8,1.4,1.3l-1.1,1.2C38.8,146.9,38.3,146.5,37.9,146.1z M35.1,143.6l1-1.2l1.4,1.3l-1,1.2L35.1,143.6z M32.3,141.1
				l1.1-1.2c0.5,0.4,0.9,0.8,1.4,1.3l-1,1.2C33.2,141.9,32.7,141.5,32.3,141.1z M29.5,138.5l1.1-1.2c0.5,0.4,0.9,0.8,1.4,1.3
				l-1.1,1.2C30.4,139.4,30,138.9,29.5,138.5z M26.7,135.9l1.1-1.1c0.5,0.4,0.9,0.9,1.4,1.3l-1.1,1.1
				C27.7,136.8,27.2,136.4,26.7,135.9z M24,133.3l1.1-1.1c0.4,0.4,0.9,0.9,1.3,1.3l-1.1,1.1C24.9,134.2,24.5,133.7,24,133.3z"/>
		</g>
		<g>
			<path class="st0" d="M146.8,209.3c0.1-0.6,0.3-1.2,0.5-1.8l1.5,0.4c-0.2,0.6-0.3,1.2-0.4,1.8L146.8,209.3z M147.7,205.6
				c0.2-0.6,0.3-1.2,0.5-1.8l1.5,0.4c-0.2,0.6-0.3,1.2-0.5,1.8L147.7,205.6z M148.8,202c0.2-0.6,0.4-1.2,0.6-1.8l1.5,0.5
				c-0.2,0.6-0.4,1.1-0.6,1.7L148.8,202z M150.1,198.4c0.3-0.6,0.5-1.2,0.8-1.7l1.4,0.7c-0.3,0.5-0.5,1.1-0.8,1.7L150.1,198.4z
				 M151.8,194.9c0.3-0.6,0.6-1.1,1-1.7l1.3,0.8c-0.3,0.5-0.6,1-0.9,1.6L151.8,194.9z M153.9,191.7c0.4-0.5,0.8-1,1.2-1.5l1.2,1
				c-0.4,0.4-0.8,0.9-1.1,1.4L153.9,191.7z M156.5,188.7c0.5-0.4,0.9-0.9,1.5-1.3l1,1.2c-0.5,0.4-0.9,0.8-1.4,1.2L156.5,188.7z
				 M159.5,186.3c0.5-0.4,1.1-0.7,1.6-1.1l0.8,1.3c-0.5,0.3-1,0.7-1.5,1L159.5,186.3z M162.8,184.3c0.5-0.3,1.1-0.6,1.7-0.8l0.7,1.4
				c-0.6,0.3-1.1,0.5-1.7,0.8L162.8,184.3z M166.2,182.7c0.6-0.2,1.2-0.5,1.8-0.7l0.5,1.5c-0.6,0.2-1.2,0.5-1.7,0.7L166.2,182.7z
				 M169.8,181.3c0.6-0.2,1.2-0.4,1.8-0.6l0.5,1.5c-0.6,0.2-1.2,0.4-1.8,0.6L169.8,181.3z M173.4,180.2c0.6-0.2,1.2-0.4,1.8-0.5
				l0.5,1.5c-0.6,0.2-1.2,0.4-1.8,0.5L173.4,180.2z"/>
		</g>
		<g>
			<path class="st2" d="M50.8,228.3h3v-3c0-0.3,0.2-0.5,0.5-0.5h1.8c0.3,0,0.5,0.2,0.5,0.5v3h3c0.3,0,0.5,0.2,0.5,0.5v1.8
				c0,0.3-0.2,0.5-0.5,0.5h-3v3c0,0.3-0.2,0.5-0.5,0.5h-1.8c-0.3,0-0.5-0.2-0.5-0.5v-3h-3c-0.3,0-0.5-0.2-0.5-0.5v-1.8
				C50.3,228.5,50.5,228.3,50.8,228.3z"/>
		</g>
	</g>
</g>
</svg>
