<?xml version="1.0" encoding="utf-8"?>
<!-- Generator: Adobe Illustrator 21.1.0, SVG Export Plug-In . SVG Version: 6.00 Build 0)  -->
<svg version="1.1" id="Design" xmlns="http://www.w3.org/2000/svg" xmlns:xlink="http://www.w3.org/1999/xlink" x="0px" y="0px"
	 width="263.5px" height="196.7px" viewBox="0 0 263.5 196.7" style="enable-background:new 0 0 263.5 196.7;" xml:space="preserve"
	>
<style type="text/css">
	.st0{fill:#54C1C8;}
	.st1{fill:#CDDDE6;}
	.st2{fill:#FFFFFF;}
</style>
<g>
	<g>
		<path class="st0" d="M128.5,14.3c23.9,9.6,41.4,33.6,43.2,59.3c0.5,7.8-0.3,15.9-4.3,22.6c-4,6.7-11.5,11.7-19.2,11
			c-6.1-0.6-11.3-4.3-16.2-7.9c-19.2-14.2-38.4-28.4-57.6-42.6c-5-3.7-10.2-7.5-13.7-12.7c-3-4.2-6.2-12.1-3.4-17.2
			c2.3-4.3,9.8-7.7,14-9.8c11.2-5.6,24-8.2,36.5-7.4C114.8,10.1,121.9,11.6,128.5,14.3z"/>
	</g>
	<g>
		<path class="st1" d="M204.2,196.7h2.2v-6.6c1-19.6,9.4-27.7,14.4-30.9c6-3.8,7.6-4.1,12.2-5.1c1.3-0.3,2.9-0.6,4.9-1.1
			c0.9-0.2,1.8-0.4,2.7-0.6c3.8-0.9,7.7-1.8,11.2-3.5c5.2-2.5,8.8-6.5,9.9-11c1.1-4.6-0.8-9.4-2.5-13.7c-0.2-0.6-0.5-1.2-0.7-1.8
			c-0.6-1.4-0.4-3.2,0.5-4.5c0.2-0.3,0.5-0.7,0.8-1c0.4-0.5,0.9-1,1.2-1.7c0.9-1.6,0.9-3.7,0.1-5.3c-0.4-0.8-1.2-1.6-2-2.2
			c0.6-0.5,1.1-1,1.4-1.7c1.1-2,0.9-4-0.4-5c-2.1-1.8-3.9-3.4-4.5-5.6c-0.2-0.7-0.2-1.3,0-2.1c2.1-1.4,4.3-3,6-5.1
			c2-2.7,2.6-5.9,1.6-8.5c-1-2.6-3.3-4.2-5.2-5.5c-1.5-1.1-3.1-2.1-4.7-3.1c-4.3-2.7-8.3-5.3-11.4-9.1c-2.4-3-3.7-6.7-5.1-10.6
			c-0.6-1.6-1.2-3.2-1.8-4.8c-3.3-7.8-8.6-14.5-13.8-20.9c-5.8-7.2-16.6-14-19.8-15.9C185-0.1,171.8-0.4,157.4,0.2
			c-16.5,0.7-32.5,6-44.8,14.9c-8.7,6.3-16,14.7-21.3,24.5C86,49.3,83,60.1,82.5,70.8c-0.5,10.7,1.6,21.7,5.9,31.9
			c4.4,10.2,10.9,19.3,19,26.3c6.9,6,11.1,10.2,17.2,17.1c10.7,12.2,13.1,30.9,5.9,45.4l2,1c7.6-15.3,5.1-35-6.2-47.8
			c-6.2-7-10.4-11.2-17.4-17.3c-7.8-6.8-14.2-15.6-18.5-25.5c-4.2-9.9-6.2-20.6-5.8-30.9c0.5-10.4,3.4-20.9,8.5-30.3
			c5.1-9.4,12.2-17.7,20.7-23.7c12-8.7,27.5-13.8,43.6-14.5c17-0.7,28.3,0.6,42.7,9.3c3.1,1.9,13.7,8.5,19.2,15.4
			c5.1,6.3,10.3,12.9,13.5,20.4c0.6,1.5,1.2,3.1,1.8,4.7c1.4,3.9,2.8,7.9,5.5,11.2c3.3,4.1,7.7,6.9,11.9,9.6c1.5,1,3.1,2,4.6,3
			c2,1.4,3.7,2.7,4.4,4.5c0.9,2.3-0.1,4.8-1.3,6.4c-1.5,2-3.7,3.4-5.8,4.8c-0.2,0.1-0.4,0.4-0.4,0.6c-0.4,1.3-0.4,2.4-0.1,3.6
			c0.8,3,3.3,5.2,5.2,6.7c0.5,0.5,0.3,1.5-0.1,2.3c-0.5,0.9-1.4,1.5-2.4,1.6c-0.6,0.1-1,0.5-1,1.1c0,0.6,0.4,1,0.9,1.1
			c1.1,0.2,2.5,1.1,3,2.1c0.5,1,0.5,2.3-0.1,3.3c-0.2,0.4-0.6,0.9-1,1.3c-0.3,0.4-0.7,0.8-1,1.2c-1.2,1.9-1.5,4.4-0.7,6.4
			c0.2,0.6,0.5,1.2,0.7,1.9c1.7,4.1,3.4,8.4,2.4,12.3c-0.9,3.8-4.1,7.3-8.7,9.5c-3.4,1.6-7.1,2.5-10.8,3.3c-0.9,0.2-1.8,0.4-2.7,0.6
			c-2,0.5-3.5,0.8-4.8,1.1c-4.8,1-6.6,1.4-12.9,5.4c-5.7,3.6-10,9.4-12.6,17.1c-1.6,4.6-2.5,10-2.8,15.5c0,0,0,0,0,0.1V196.7z"/>
	</g>
	<g>
		<path class="st0" d="M135.1,14.3c-23.9,9.6-41.4,33.6-43.2,59.3c-0.5,7.8,0.3,15.9,4.3,22.6s11.5,11.7,19.2,11
			c6.1-0.6,11.3-4.3,16.2-7.9c19.2-14.2,38.4-28.4,57.6-42.6c5-3.7,10.2-7.5,13.7-12.7c3-4.2,6.2-12.1,3.4-17.2
			c-2.3-4.3-9.8-7.7-14-9.8c-11.2-5.6-24-8.2-36.5-7.4C148.8,10.1,141.7,11.6,135.1,14.3z"/>
	</g>
	<g>
		<circle class="st0" cx="131.7" cy="58.4" r="26"/>
		<path class="st2" d="M148.3,53.3h-11.4V41.9c0-1-0.8-1.8-1.8-1.8h-6.6c-1,0-1.8,0.8-1.8,1.8v11.4h-11.4c-1,0-1.8,0.8-1.8,1.8v6.6
			c0,1,0.8,1.8,1.8,1.8h11.4v11.4c0,1,0.8,1.8,1.8,1.8h6.6c1,0,1.8-0.8,1.8-1.8V63.5h11.4c1,0,1.8-0.8,1.8-1.8v-6.6
			C150.1,54.1,149.3,53.3,148.3,53.3z"/>
	</g>
	<g>
		<path class="st1" d="M56.1,79.9c-2.9,0-5.8-0.6-8.5-1.8c-5.3-2.3-9.7-7-12.2-12.7c-0.3-0.6,0-1.4,0.7-1.7c0.6-0.3,1.4,0,1.7,0.7
			c2.3,5.1,6.2,9.3,10.9,11.4c4.7,2.1,10,2.1,14.7,0.1c0.6-0.3,1.4,0,1.7,0.7c0.3,0.6,0,1.4-0.7,1.7C61.7,79.3,58.9,79.9,56.1,79.9z
			"/>
	</g>
	<g>
		<g>
			<path class="st1" d="M207.5,79.9c2.9,0,5.8-0.6,8.5-1.8c5.3-2.3,9.7-7,12.2-12.7c0.3-0.6,0-1.4-0.7-1.7c-0.6-0.3-1.4,0-1.7,0.7
				c-2.3,5.1-6.2,9.3-10.9,11.4c-4.7,2.1-10,2.1-14.7,0.1c-0.6-0.3-1.4,0-1.7,0.7c-0.3,0.6,0,1.4,0.7,1.7
				C202,79.3,204.8,79.9,207.5,79.9z"/>
		</g>
		<g>
			<path class="st1" d="M199.1,82.8c-0.3,0-0.7-0.2-0.8-0.6c-0.1-0.4,0.1-0.9,0.5-1c2-0.7,3.7-2,4.9-3.6c0.3-0.4,0.8-0.4,1.1-0.2
				c0.4,0.3,0.4,0.8,0.2,1.1c-1.4,2-3.4,3.5-5.7,4.2C199.3,82.8,199.2,82.8,199.1,82.8z"/>
		</g>
		<g>
			<path class="st1" d="M204.3,84.5c-0.3,0-0.5-0.1-0.7-0.4c-0.2-0.4-0.1-0.9,0.2-1.1c1.8-1.2,3.3-2.8,4.4-4.6
				c0.2-0.4,0.7-0.5,1.1-0.3s0.5,0.7,0.3,1.1c-1.2,2.1-2.9,3.9-4.9,5.2C204.6,84.5,204.5,84.5,204.3,84.5z"/>
		</g>
	</g>
	<path class="st1" d="M181,70.8c-0.5-10.7-3.5-21.5-8.8-31.2c-5.3-9.7-12.6-18.2-21.3-24.5c-12.4-8.9-28.3-14.2-44.8-14.9
		C91.7-0.4,78.5-0.1,62.2,9.7c-3.2,1.9-14,8.7-19.8,15.9c-5.1,6.4-10.5,13.1-13.8,20.9c-0.7,1.6-1.2,3.2-1.8,4.8
		c-1.4,3.9-2.7,7.5-5.1,10.6c-3.1,3.8-7.1,6.4-11.4,9.1c-1.5,1-3.1,2-4.7,3.1c-1.9,1.3-4.2,2.9-5.2,5.5c-1,2.6-0.4,5.9,1.6,8.5
		c0.8,1.1,1.6,1.9,2.9,2.9l0,0c0,0,0,0,0.1,0c0.6,0.5,1.4,1,2.3,1.6c3,2.2,5.9,5.1,6,8.4c0.1,3-1.2,6-2.3,8.7
		c-1.5,3.5-2.7,5.9-3.8,8.3c-0.2,0.4-0.4,0.8-0.6,1.2c0,0,0,0,0,0c0,0,0,0,0,0c-0.2,0.5-0.5,1-0.7,1.6c-0.3,0.7-0.7,1.4-0.7,1.5
		c-0.2,0.6-0.6,1.2-0.9,1.8c-1.7,4.2-3.6,9-2.5,13.7c1.1,4.5,4.7,8.5,9.9,11c3.6,1.7,7.5,2.6,11.2,3.5c0.9,0.2,1.8,0.4,2.7,0.6
		c2,0.5,3.6,0.8,4.9,1.1c4.6,1,6.2,1.3,12.2,5.1c5,3.1,13.4,11.3,14.4,30.9v6.6h2.2V190c0,0,0,0,0-0.1c-0.3-5.5-1.2-10.9-2.8-15.5
		c-2.6-7.7-6.9-13.5-12.6-17.1c-6.3-4-8.1-4.4-12.9-5.4c-1.3-0.3-2.9-0.6-4.8-1.1c-0.9-0.2-1.8-0.4-2.7-0.6
		c-3.6-0.8-7.4-1.7-10.8-3.3c-4.6-2.2-7.8-5.7-8.7-9.5c-0.9-3.6,0.5-7.5,2-11.3c1.2-2.9,2.3-5,3.3-7.1c1.2-2.4,2.4-4.9,3.9-8.4
		c1.2-2.9,2.6-6.1,2.5-9.6c-0.2-5.2-5.4-9-9.4-11.8c-0.9-0.7-1.6-1.5-2.3-2.4c-1.2-1.6-2.2-4.1-1.3-6.4c0.7-1.8,2.4-3.1,4.4-4.5
		c1.5-1,3.1-2,4.6-3c4.3-2.7,8.6-5.5,11.9-9.6C26,60,27.5,56,28.9,52.1c0.6-1.5,1.1-3.1,1.8-4.7c3.2-7.5,8.4-14.1,13.5-20.4
		c5.5-6.9,16.1-13.6,19.2-15.4C77.8,2.9,89,1.7,106,2.4c16.1,0.6,31.6,5.8,43.6,14.5c8.4,6.1,15.6,14.3,20.7,23.7
		c5.1,9.4,8,19.9,8.5,30.3c0.5,10.4-1.5,21.1-5.8,30.9c-4.2,9.9-10.6,18.7-18.5,25.5c-7,6.1-11.2,10.3-17.4,17.3
		c-11.3,12.8-13.8,32.5-6.2,47.8l2-1c-7.2-14.5-4.8-33.2,5.9-45.4c6.1-6.9,10.3-11.1,17.2-17.1c8.1-7,14.7-16.1,19-26.3
		C179.4,92.5,181.5,81.5,181,70.8z"/>
</g>
</svg>
