<?xml version="1.0" encoding="utf-8"?>
<!-- Generator: Adobe Illustrator 21.1.0, SVG Export Plug-In . SVG Version: 6.00 Build 0)  -->
<svg version="1.1" id="Design" xmlns="http://www.w3.org/2000/svg" xmlns:xlink="http://www.w3.org/1999/xlink" x="0px" y="0px"
	 width="274.2px" height="296.8px" viewBox="0 0 274.2 296.8" style="enable-background:new 0 0 274.2 296.8;" xml:space="preserve"
	>
<style type="text/css">
	.st0{fill:#CDDDE6;}
	.st1{fill:#54C1C8;stroke:#FFFFFF;stroke-miterlimit:10;}
</style>
<g>
	<path class="st0" d="M200.3,171.7c-1.1,4.4-2.5,8.6-4.3,12.8c-4.8,11.2-12,21.2-20.9,28.9c-7.9,6.9-12.7,11.7-19.7,19.6
		c-12.4,14.2-15.5,35.7-7.7,52.8l0.2,0.4c0,0,0,0.1,0,0.1c-25.7,8.5-54.3,10.3-80.7,5v-6.9c0,0,0,0,0-0.1
		c-0.3-6.3-1.4-12.3-3.2-17.6c-3-8.8-7.8-15.3-14.3-19.4c-7.2-4.5-9.2-4.9-14.6-6.1c-1.5-0.3-3.3-0.7-5.5-1.2c-1-0.2-2-0.5-3.1-0.7
		c-4.1-1-8.4-1.9-12.2-3.8c-5.2-2.5-8.8-6.4-9.9-10.8c-1.1-4.5,0.8-9.3,2.7-14c0.3-0.7,0.6-1.4,0.8-2.1c0.9-2.4,0.6-5.2-0.8-7.3
		c-0.3-0.5-0.7-1-1.1-1.4c-0.4-0.5-0.8-1-1.1-1.5c-0.6-1.1-0.6-2.6-0.1-3.7c0.6-1.1,2.1-2.2,3.4-2.4c0.6-0.1,1.1-0.6,1.1-1.2
		c0-0.6-0.5-1.1-1.1-1.2c-1.1-0.1-2.2-0.8-2.7-1.8c-0.5-0.9-0.7-2.1-0.1-2.6c2.1-1.8,5-4.2,5.9-7.6c0.4-1.4,0.3-2.6-0.1-4.1
		c-0.1-0.3-0.3-0.5-0.5-0.7c-2.4-1.6-4.8-3.2-6.5-5.5c-1.4-1.8-2.5-4.7-1.5-7.3c0.8-2,2.7-3.5,5-5.1c1.7-1.2,3.5-2.3,5.2-3.4
		c4.8-3.1,9.8-6.2,13.5-10.9c3-3.8,4.6-8.3,6.2-12.7c0.6-1.7,1.3-3.6,2-5.3c3.6-8.5,9.5-15.9,15.3-23.1c6.3-7.9,18.2-15.4,21.7-17.5
		c4.3-2.6,8.4-4.6,12.5-6.2c-0.7-0.4-1.1-1.3-1-2.2c-4.1,1.6-8.3,3.6-12.7,6.3c-3.6,2.2-15.9,9.9-22.4,18.1
		c-5.8,7.3-11.9,14.8-15.6,23.7c-0.8,1.8-1.4,3.6-2.1,5.4c-1.6,4.4-3.1,8.5-5.8,12c-3.5,4.3-8,7.3-12.9,10.4
		c-1.7,1.1-3.5,2.3-5.3,3.5c-2.1,1.5-4.7,3.3-5.8,6.2c-1.1,2.9-0.4,6.6,1.8,9.6c1.8,2.5,4.4,4.2,6.7,5.8c0.2,0.9,0.2,1.5,0,2.4
		c-0.6,2.4-2.7,4.3-5.1,6.3c-1.5,1.2-1.7,3.5-0.5,5.7c0.4,0.7,0.9,1.4,1.6,1.9c-1,0.7-1.8,1.6-2.3,2.5c-0.9,1.9-0.9,4.2,0.1,6
		c0.4,0.7,0.9,1.3,1.4,1.9c0.3,0.4,0.6,0.8,0.9,1.2c1,1.5,1.2,3.4,0.5,5c-0.3,0.7-0.5,1.4-0.8,2.1C3,214.6,0.8,220,2.1,225.3
		c1.2,5.1,5.3,9.6,11.2,12.4c4.1,1.9,8.5,3,12.7,3.9c1,0.2,2,0.5,3,0.7c2.2,0.5,4.1,0.9,5.5,1.3c5.3,1.1,7,1.5,13.8,5.8
		c5.6,3.5,15.2,12.8,16.3,35v5.4l-0.2,3.5l1.1,0.2c10.7,2.2,21.6,3.3,32.5,3.3c17.6,0,35.2-2.9,52-8.6l1.3-0.5l-1.2-2.4
		c-7.7-16.3-4.9-37.1,7-50.7c6.9-7.9,11.6-12.6,19.5-19.4c9.2-8,16.6-18.3,21.5-29.8c1.9-4.4,3.4-8.9,4.5-13.5
		C201.9,171.9,201.1,171.8,200.3,171.7z"/>
	<g>
		<path class="st1" d="M216.3,79.8c-0.1,0.9-0.5,1.6-1.1,2.3l0,0c0,0-3.5,4-0.7,4.5l10.9,1.7l1.7-10.9c0.5-2.8,4.5,0.7,4.5,0.7l0,0
			c0.6,0.5,1.4,0.9,2.3,1.1c2.4,0.4,4.7-1.3,5.1-3.7c0.4-2.4-1.3-4.7-3.7-5.1c-0.9-0.1-1.7,0-2.5,0.3l0,0c0,0-5,2.1-4.5-0.7
			l1.7-10.9l-10.9-1.7c-2.8-0.5,0.7-4.5,0.7-4.5l0,0c0.5-0.6,0.9-1.4,1.1-2.3c0.4-2.4-1.3-4.7-3.7-5.1c-2.4-0.4-4.7,1.3-5.1,3.7
			c-0.1,0.9,0,1.7,0.3,2.5l0,0c0,0,2.1,5-0.7,4.5l-10.9-1.7l-1.7,10.9c-0.5,2.8,4.5,0.7,4.5,0.7l0,0c0.8-0.3,1.6-0.5,2.5-0.3
			c2.4,0.4,4.1,2.7,3.7,5.1c-0.4,2.4-2.7,4.1-5.1,3.7c-0.9-0.1-1.6-0.5-2.3-1.1l0,0c0,0-4-3.5-4.5-0.7l-1.7,10.9l10.9,1.7
			c2.8,0.5,0.7-4.5,0.7-4.5l0,0c-0.3-0.8-0.5-1.6-0.3-2.5c0.4-2.4,2.7-4.1,5.1-3.7C215.1,75.1,216.7,77.3,216.3,79.8z"/>
		<path class="st1" d="M173.9,128.7c0.9,0,1.7,0.3,2.4,0.7l0,0c0,0,4.6,2.9,4.6,0v-11.1h-11.1c-2.9,0,0-4.6,0-4.6l0,0
			c0.4-0.7,0.7-1.5,0.7-2.4c0-2.5-2-4.4-4.4-4.4c-2.5,0-4.4,2-4.4,4.4c0,0.9,0.3,1.7,0.7,2.4l0,0c0,0,2.9,4.6,0,4.6h-11.1v11.1
			c0,2.9-4.6,0-4.6,0l0,0c-0.7-0.4-1.5-0.7-2.4-0.7c-2.5,0-4.4,2-4.4,4.4c0,2.5,2,4.4,4.4,4.4c0.9,0,1.7-0.3,2.4-0.7l0,0
			c0,0,4.6-2.9,4.6,0V148h11.1c2.8,0,0,4.6,0,4.6l0,0c-0.4,0.7-0.7,1.5-0.7,2.4c0,2.5,2,4.4,4.4,4.4c2.5,0,4.4-2,4.4-4.4
			c0-0.9-0.3-1.7-0.7-2.4l0,0c0,0-2.9-4.6,0-4.6h11.1v-11.1c0-2.9-4.6,0-4.6,0l0,0c-0.7,0.4-1.5,0.7-2.4,0.7c-2.5,0-4.4-2-4.4-4.4
			C169.5,130.7,171.5,128.7,173.9,128.7z"/>
		<path class="st1" d="M111.5,81.8c0,0.9-0.3,1.7-0.7,2.4l0,0c0,0-2.9,4.6,0,4.6h11.1V77.7c0-2.9,4.6,0,4.6,0l0,0
			c0.7,0.4,1.5,0.7,2.4,0.7c2.5,0,4.4-2,4.4-4.4c0-2.5-2-4.4-4.4-4.4c-0.9,0-1.7,0.3-2.4,0.7l0,0c0,0-4.6,2.9-4.6,0V59.2h-11.1
			c-2.9,0,0-4.6,0-4.6l0,0c0.4-0.7,0.7-1.5,0.7-2.4c0-2.5-2-4.4-4.4-4.4c-2.5,0-4.4,2-4.4,4.4c0,0.9,0.3,1.7,0.7,2.4l0,0
			c0,0,2.9,4.6,0,4.6H92.2v11.1c0,2.8-4.6,0-4.6,0l0,0c-0.7-0.4-1.5-0.7-2.4-0.7c-2.5,0-4.4,2-4.4,4.4c0,2.5,2,4.4,4.4,4.4
			c0.9,0,1.7-0.3,2.4-0.7l0,0c0,0,4.6-2.8,4.6,0v11.1h11.1c2.9,0,0-4.6,0-4.6l0,0c-0.4-0.7-0.7-1.5-0.7-2.4c0-2.5,2-4.4,4.4-4.4
			C109.5,77.4,111.5,79.4,111.5,81.8z"/>
		<path class="st1" d="M158.3,99.1c-0.9,0-1.7,0.3-2.4,0.7l0,0c0,0-4.6,2.9-4.6,0V88.8h-11.1c-2.9,0,0,4.6,0,4.6l0,0
			c0.4,0.7,0.7,1.5,0.7,2.4c0,2.5-2,4.4-4.4,4.4s-4.4-2-4.4-4.4c0-0.9,0.3-1.7,0.7-2.4l0,0c0,0,2.9-4.6,0-4.6h-11.1v11.1
			c0,2.9-4.6,0-4.6,0l0,0c-0.7-0.4-1.5-0.7-2.4-0.7c-2.5,0-4.4,2-4.4,4.4c0,2.5,2,4.4,4.4,4.4c0.9,0,1.7-0.3,2.4-0.7l0,0
			c0,0,4.6-2.9,4.6,0v11.1h11.1c2.9,0,0-4.6,0-4.6l0,0c-0.4-0.7-0.7-1.5-0.7-2.4c0-2.5,2-4.4,4.4-4.4c2.5,0,4.4,2,4.4,4.4
			c0,0.9-0.3,1.7-0.7,2.4l0,0c0,0-2.9,4.6,0,4.6h11.1v-11.1c0-2.9,4.6,0,4.6,0l0,0c0.7,0.4,1.5,0.7,2.4,0.7c2.5,0,4.4-2,4.4-4.4
			C162.7,101.1,160.7,99.1,158.3,99.1z"/>
		<path class="st1" d="M159.8,76.5c-0.4-0.8-1-1.4-1.8-1.8l0,0c0,0-4.7-2.7-2.2-4l9.7-5.2l-5.2-9.7c-1.3-2.5-4,2.2-4,2.2l0,0
			c-0.4,0.7-1,1.3-1.8,1.8c-2.2,1.2-4.9,0.3-6-1.8c-1.2-2.2-0.3-4.9,1.8-6c0.8-0.4,1.6-0.6,2.4-0.5l0,0c0,0,5.4,0.4,4-2.2l-5.2-9.7
			l-9.7,5.2c-2.5,1.3-2.2-4-2.2-4l0,0c0.1-0.8-0.1-1.7-0.5-2.4c-1.2-2.2-3.9-3-6-1.8c-2.2,1.2-3,3.9-1.8,6c0.4,0.8,1,1.4,1.8,1.8
			l0,0c0,0,4.7,2.7,2.2,4l-9.7,5.2l5.2,9.7c1.3,2.5,4-2.2,4-2.2l0,0c0.4-0.7,1-1.3,1.8-1.8c2.2-1.2,4.9-0.3,6,1.8
			c1.2,2.2,0.3,4.9-1.8,6c-0.8,0.4-1.6,0.6-2.4,0.5l0,0c0,0-5.4-0.4-4,2.2l5.2,9.7l9.7-5.2c2.5-1.3,2.2,4,2.2,4l0,0
			c-0.1,0.8,0.1,1.7,0.5,2.4c1.2,2.2,3.9,3,6,1.8C160.2,81.4,161,78.7,159.8,76.5z"/>
		<path class="st1" d="M184.5,9.3c0.2-0.9,0.6-1.6,1.1-2.2l0,0c0,0,3.6-4,0.8-4.5l-10.9-2l-2,10.9c-0.5,2.8-4.5-0.8-4.5-0.8l0,0
			c-0.6-0.6-1.4-1-2.2-1.1c-2.4-0.4-4.7,1.2-5.2,3.6c-0.4,2.4,1.2,4.7,3.6,5.2c0.9,0.2,1.7,0,2.5-0.3l0,0c0,0,5-2,4.5,0.8l-2,10.9
			l10.9,2c2.8,0.5-0.8,4.5-0.8,4.5l0,0c-0.6,0.6-1,1.4-1.1,2.2c-0.4,2.4,1.2,4.7,3.6,5.2c2.4,0.4,4.7-1.2,5.2-3.6
			c0.2-0.9,0-1.7-0.3-2.5l0,0c0,0-2-5,0.8-4.5l10.9,2l2-10.9c0.5-2.8-4.5-0.8-4.5-0.8l0,0c-0.8,0.3-1.6,0.4-2.5,0.3
			c-2.4-0.4-4-2.7-3.6-5.2c0.4-2.4,2.7-4,5.2-3.6c0.9,0.2,1.6,0.6,2.2,1.1l0,0c0,0,4,3.6,4.5,0.8l2-10.9l-10.9-2
			C191,3.4,193,8.4,193,8.4l0,0c0.3,0.8,0.4,1.6,0.3,2.5c-0.4,2.4-2.7,4-5.2,3.6C185.7,14,184.1,11.7,184.5,9.3z"/>
		<path class="st1" d="M158.2,108c-0.9,0-1.7-0.3-2.4-0.7l0,0c0,0-4.6-2.9-4.6,0v11.1h11.1c2.9,0,0-4.6,0-4.6l0,0
			c-0.4-0.7-0.7-1.5-0.7-2.4c0-2.5,2-4.4,4.4-4.4c2.5,0,4.4,2,4.4,4.4c0,0.9-0.3,1.7-0.7,2.4l0,0c0,0-2.9,4.6,0,4.6h11.1v-11.1
			c0-2.9,4.6,0,4.6,0l0,0c0.7,0.4,1.5,0.7,2.4,0.7c2.5,0,4.4-2,4.4-4.4c0-2.5-2-4.4-4.4-4.4c-0.9,0-1.7,0.3-2.4,0.7l0,0
			c0,0-4.6,2.9-4.6,0V88.8h-11.1c-2.9,0,0,4.6,0,4.6l0,0c0.4,0.7,0.7,1.5,0.7,2.4c0,2.5-2,4.4-4.4,4.4s-4.4-2-4.4-4.4
			c0-0.9,0.3-1.7,0.7-2.4l0,0c0,0,2.9-4.6,0-4.6h-11.1v11.1c0,2.9,4.6,0,4.6,0l0,0c0.7-0.4,1.5-0.7,2.4-0.7c2.5,0,4.4,2,4.4,4.4
			C162.6,106,160.6,108,158.2,108z"/>
		<path class="st1" d="M227.8,122.6c0.9-0.2,1.6-0.6,2.2-1.2l0,0c0,0,3.8-3.8,4.5-1l2.4,10.8l10.8-2.4c2.8-0.6-1-4.5-1-4.5l0,0
			c-0.6-0.6-1-1.3-1.2-2.2c-0.5-2.4,1-4.8,3.4-5.3s4.8,1,5.3,3.4c0.2,0.9,0.1,1.7-0.2,2.5l0,0c0,0-1.8,5.1,1,4.5l10.8-2.4l-2.4-10.8
			c-0.6-2.8,4.5-1,4.5-1l0,0c0.8,0.3,1.6,0.4,2.5,0.2c2.4-0.5,3.9-2.9,3.4-5.3c-0.5-2.4-2.9-3.9-5.3-3.4c-0.9,0.2-1.6,0.6-2.2,1.2
			l0,0c0,0-3.8,3.8-4.5,1L259.3,96l-10.8,2.4c-2.8,0.6,1,4.5,1,4.5l0,0c0.6,0.6,1,1.3,1.2,2.2c0.5,2.4-1,4.8-3.4,5.3
			c-2.4,0.5-4.8-1-5.3-3.4c-0.2-0.9-0.1-1.7,0.2-2.5l0,0c0,0,1.8-5.1-1-4.5l-10.8,2.4l2.4,10.8c0.6,2.8-4.5,1-4.5,1l0,0
			c-0.8-0.3-1.6-0.4-2.5-0.2c-2.4,0.5-3.9,2.9-3.4,5.3C223,121.6,225.4,123.2,227.8,122.6z"/>
		<path class="st1" d="M203.5,128.7c0.9,0,1.7,0.3,2.4,0.7l0,0c0,0,4.6,2.9,4.6,0v-11.1h-11.1c-2.9,0,0-4.6,0-4.6l0,0
			c0.4-0.7,0.7-1.5,0.7-2.4c0-2.5-2-4.4-4.4-4.4c-2.5,0-4.4,2-4.4,4.4c0,0.9,0.3,1.7,0.7,2.4l0,0c0,0,2.9,4.6,0,4.6h-11.1v11.1
			c0,2.9-4.6,0-4.6,0l0,0c-0.7-0.4-1.5-0.7-2.4-0.7c-2.5,0-4.4,2-4.4,4.4c0,2.5,2,4.4,4.4,4.4c0.9,0,1.7-0.3,2.4-0.7l0,0
			c0,0,4.6-2.9,4.6,0V148h11.1c2.9,0,0-4.6,0-4.6l0,0c-0.4-0.7-0.7-1.5-0.7-2.4c0-2.5,2-4.4,4.4-4.4c2.5,0,4.4,2,4.4,4.4
			c0,0.9-0.3,1.7-0.7,2.4l0,0c0,0-2.9,4.6,0,4.6h11.1v-11.1c0-2.9-4.6,0-4.6,0l0,0c-0.7,0.4-1.5,0.7-2.4,0.7c-2.5,0-4.4-2-4.4-4.4
			C199,130.7,201,128.7,203.5,128.7z"/>
		<path class="st1" d="M141,154.9c0-0.9-0.3-1.7-0.7-2.4l0,0c0,0-2.9-4.6,0-4.6h11.1v-11.1c0-2.9-4.6,0-4.6,0l0,0
			c-0.7,0.4-1.5,0.7-2.4,0.7c-2.5,0-4.4-2-4.4-4.4c0-2.5,2-4.4,4.4-4.4c0.9,0,1.7,0.3,2.4,0.7l0,0c0,0,4.6,2.9,4.6,0v-11.1h-11.1
			c-2.9,0,0-4.6,0-4.6l0,0c0.4-0.7,0.7-1.5,0.7-2.4c0-2.5-2-4.4-4.4-4.4c-2.5,0-4.4,2-4.4,4.4c0,0.9,0.3,1.7,0.7,2.4l0,0
			c0,0,2.9,4.6,0,4.6h-11.1v11.1c0,2.9,4.6,0,4.6,0l0,0c0.7-0.4,1.5-0.7,2.4-0.7c2.5,0,4.4,2,4.4,4.4s-2,4.4-4.4,4.4
			c-0.9,0-1.7-0.3-2.4-0.7l0,0c0,0-4.6-2.9-4.6,0V148h11.1c2.9,0,0,4.6,0,4.6l0,0c-0.4,0.7-0.7,1.5-0.7,2.4c0,2.5,2,4.4,4.4,4.4
			C139,159.4,141,157.4,141,154.9z"/>
		<path class="st1" d="M114.9,99.1c0.9,0,1.7,0.3,2.4,0.7l0,0c0,0,4.6,2.9,4.6,0V88.8h-11.1c-2.9,0,0-4.6,0-4.6l0,0
			c0.4-0.7,0.7-1.5,0.7-2.4c0-2.5-2-4.4-4.4-4.4c-2.5,0-4.4,2-4.4,4.4c0,0.9,0.3,1.7,0.7,2.4l0,0c0,0,2.9,4.6,0,4.6H92.2v11.1
			c0,2.9-4.6,0-4.6,0l0,0c-0.7-0.4-1.5-0.7-2.4-0.7c-2.5,0-4.4,2-4.4,4.4c0,2.5,2,4.4,4.4,4.4c0.9,0,1.7-0.3,2.4-0.7l0,0
			c0,0,4.6-2.9,4.6,0v11.1h11.1c2.8,0,0,4.6,0,4.6l0,0c-0.4,0.7-0.7,1.5-0.7,2.4c0,2.5,2,4.4,4.4,4.4c2.5,0,4.4-2,4.4-4.4
			c0-0.9-0.3-1.7-0.7-2.4l0,0c0,0-2.8-4.6,0-4.6h11.1v-11.1c0-2.9-4.6,0-4.6,0l0,0c-0.7,0.4-1.5,0.7-2.4,0.7c-2.5,0-4.4-2-4.4-4.4
			C110.4,101.1,112.4,99.1,114.9,99.1z"/>
		<path class="st1" d="M203.5,158.3c0.9,0,1.7,0.3,2.4,0.7l0,0c0,0,4.6,2.9,4.6,0V148h-11.1c-2.9,0,0-4.6,0-4.6l0,0
			c0.4-0.7,0.7-1.5,0.7-2.4c0-2.5-2-4.4-4.4-4.4c-2.5,0-4.4,2-4.4,4.4c0,0.9,0.3,1.7,0.7,2.4l0,0c0,0,2.9,4.6,0,4.6h-11.1V159
			c0,2.9-4.6,0-4.6,0l0,0c-0.7-0.4-1.5-0.7-2.4-0.7c-2.5,0-4.4,2-4.4,4.4c0,2.5,2,4.4,4.4,4.4c0.9,0,1.7-0.3,2.4-0.7l0,0
			c0,0,4.6-2.9,4.6,0v11.1h11.1c2.9,0,0-4.6,0-4.6l0,0c-0.4-0.7-0.7-1.5-0.7-2.4c0-2.5,2-4.4,4.4-4.4c2.5,0,4.4,2,4.4,4.4
			c0,0.9-0.3,1.7-0.7,2.4l0,0c0,0-2.9,4.6,0,4.6h11.1v-11.1c0-2.9-4.6,0-4.6,0l0,0c-0.7,0.4-1.5,0.7-2.4,0.7c-2.5,0-4.4-2-4.4-4.4
			C199,160.3,201,158.3,203.5,158.3z"/>
	</g>
</g>
</svg>
