<?xml version="1.0" encoding="utf-8"?>
<!-- Generator: Adobe Illustrator 22.1.0, SVG Export Plug-In . SVG Version: 6.00 Build 0)  -->
<svg version="1.1" id="Capa_1" xmlns="http://www.w3.org/2000/svg" xmlns:xlink="http://www.w3.org/1999/xlink" x="0px" y="0px"
	 width="400px" height="400px" viewBox="0 0 400 400" style="enable-background:new 0 0 400 400;" xml:space="preserve">
<style type="text/css">
	.st0{fill:url(#SVGID_1_);}
	.st1{fill:url(#SVGID_2_);}
	.st2{fill:url(#SVGID_3_);}
</style>
<g>
	<g>
		<linearGradient id="SVGID_1_" gradientUnits="userSpaceOnUse" x1="0" y1="200" x2="400" y2="200">
			<stop  offset="0" style="stop-color:#54C1C8"/>
			<stop  offset="1" style="stop-color:#238488"/>
		</linearGradient>
		<path class="st0" d="M200,0C89.7,0,0,89.7,0,200c0,110.3,89.7,200,200,200c110.3,0,200-89.7,200-200C400,89.7,310.3,0,200,0z
			 M200,373.8c-95.8,0-173.8-78-173.8-173.8c0-95.8,78-173.8,173.8-173.8c95.8,0,173.8,78,173.8,173.8
			C373.8,295.8,295.8,373.8,200,373.8z"/>
		<linearGradient id="SVGID_2_" gradientUnits="userSpaceOnUse" x1="136.207" y1="178.018" x2="263.793" y2="178.018">
			<stop  offset="0" style="stop-color:#54C1C8"/>
			<stop  offset="1" style="stop-color:#238488"/>
		</linearGradient>
		<path class="st1" d="M200,91.4c-35.2,0-63.8,28.6-63.8,63.8c0,7.2,5.9,13.1,13.1,13.1c7.2,0,13.1-5.9,13.1-13.1
			c0-20.7,16.8-37.6,37.6-37.6c20.7,0,37.6,16.9,37.6,37.6c0,20.7-16.8,37.6-37.6,37.6c-7.2,0-13.1,5.9-13.1,13.1v45.7
			c0,7.2,5.9,13.1,13.1,13.1s13.1-5.9,13.1-13.1v-33.9c28.9-6.1,50.7-31.7,50.7-62.4C263.8,120,235.2,91.4,200,91.4z"/>
		<linearGradient id="SVGID_3_" gradientUnits="userSpaceOnUse" x1="183.539" y1="290.2015" x2="216.461" y2="290.2015">
			<stop  offset="0" style="stop-color:#54C1C8"/>
			<stop  offset="1" style="stop-color:#238488"/>
		</linearGradient>
		<path class="st2" d="M200,273.7c-9.1,0-16.5,7.4-16.5,16.5s7.4,16.5,16.5,16.5c9.1,0,16.5-7.4,16.5-16.5S209.1,273.7,200,273.7z"
			/>
	</g>
</g>
</svg>
