<?xml version="1.0" encoding="utf-8"?>
<!-- Generator: Adobe Illustrator 21.1.0, SVG Export Plug-In . SVG Version: 6.00 Build 0)  -->
<svg version="1.1" id="Layer_1" xmlns="http://www.w3.org/2000/svg" xmlns:xlink="http://www.w3.org/1999/xlink" x="0px" y="0px"
	 viewBox="0 0 243.7 31" style="enable-background:new 0 0 243.7 31;" xml:space="preserve">
<style type="text/css">
	.st0{fill:#FFFFFF;stroke:#FFFFFF;stroke-miterlimit:10;}
</style>
<path class="st0" d="M20.2,20.8c0,0.3-0.2,0.5-0.6,0.5c-0.2,0-0.4-0.1-0.5-0.3L1.7,2.5v18.2c0,0.3-0.2,0.5-0.6,0.5
	c-0.4,0-0.6-0.2-0.6-0.5V1c0-0.3,0.2-0.5,0.6-0.5c0.2,0,0.4,0.1,0.5,0.3l17.3,18.5V1c0-0.3,0.2-0.5,0.6-0.5c0.4,0,0.6,0.2,0.6,0.5
	V20.8z"/>
<path class="st0" d="M42.9,20.9c0,0.2-0.1,0.4-0.4,0.4h-9.2c-0.3,0-0.4-0.1-0.4-0.4V7.1c0-0.2,0.1-0.4,0.4-0.4h9.2
	c0.3,0,0.4,0.1,0.4,0.4c0,0.2-0.1,0.4-0.4,0.4h-8.8v6.2h6.9c0.3,0,0.4,0.1,0.4,0.4c0,0.2-0.1,0.4-0.4,0.4h-6.9v6.2h8.8
	C42.7,20.5,42.9,20.7,42.9,20.9"/>
<path class="st0" d="M75.5,7.1c0,0.1-1.3,2.3-3.8,6.6c-2.5,4.3-4,6.7-4.5,7.4c-0.1,0.2-0.3,0.3-0.4,0.3c-0.2,0-0.3-0.1-0.4-0.3
	l-3.7-6.2L59,21c-0.1,0.2-0.2,0.3-0.4,0.3c-0.2,0-0.3-0.1-0.4-0.3c-0.4-0.7-1.9-3.1-4.5-7.4c-2.6-4.3-3.8-6.5-3.8-6.6
	c0-0.2,0.2-0.3,0.4-0.3c0.2,0,0.3,0.1,0.4,0.2l7.9,13.2l3.7-6.1c-2.7-4.5-4.1-6.8-4.1-6.9c0-0.2,0.2-0.4,0.5-0.4
	c0.2,0,0.3,0.1,0.4,0.2l3.8,6.3l3.7-6.3c0.1-0.1,0.2-0.2,0.4-0.2c0.3,0,0.5,0.1,0.5,0.4c0,0.1-1.4,2.4-4.1,6.9l3.7,6.1l7.9-13.2
	c0.1-0.1,0.2-0.2,0.4-0.2C75.4,6.7,75.5,6.8,75.5,7.1"/>
<path class="st0" d="M103.6,3.9c0,0.4-0.2,0.5-0.6,0.5c-0.1,0-0.3-0.1-0.4-0.2c-2.5-1.8-5.2-2.7-7.9-2.7c-3.1,0-5.7,0.9-7.9,2.7
	c-2.2,1.8-3.3,4-3.3,6.6c0,2.6,1.1,4.8,3.3,6.6c2.2,1.8,4.8,2.7,7.9,2.7c3,0,5.6-0.9,7.8-2.6v-6.8c0-0.3,0.2-0.5,0.6-0.5
	c0.4,0,0.6,0.2,0.6,0.5v7c0,0.1-0.1,0.2-0.2,0.4c-1,0.9-2.3,1.7-4,2.3c-1.6,0.5-3.2,0.8-4.8,0.8c-3.4,0-6.4-1-8.8-3
	c-2.4-2-3.6-4.5-3.6-7.3c0-2.9,1.2-5.3,3.6-7.3c2.4-2,5.4-3,8.8-3c3.5,0,6.5,1,8.8,3C103.5,3.7,103.6,3.8,103.6,3.9"/>
<path class="st0" d="M125.4,20.9c0,0.2-0.1,0.4-0.4,0.4c-0.1,0-0.2,0-0.3-0.1l-7.3-6.1c-0.1-0.1-0.2-0.2-0.2-0.3
	c0-0.2,0.2-0.4,0.5-0.4h2.7c1.1,0,2.1-0.3,2.9-1c0.8-0.7,1.2-1.5,1.2-2.4c0-1-0.4-1.8-1.2-2.4c-0.8-0.7-1.8-1-2.9-1h-4.2v13.5
	c0,0.2-0.1,0.4-0.4,0.4c-0.3,0-0.4-0.1-0.4-0.4V7.1c0-0.2,0.1-0.3,0.4-0.3h4.6c1.4,0,2.6,0.4,3.6,1.2c1,0.8,1.5,1.8,1.5,3
	c0,1.2-0.5,2.1-1.5,3c-1,0.8-2.2,1.2-3.6,1.2h-1.7l6.6,5.5C125.4,20.7,125.4,20.8,125.4,20.9"/>
<path class="st0" d="M149.8,20.9c0,0.2-0.2,0.3-0.5,0.3c-0.2,0-0.3-0.1-0.4-0.2l-2.6-4.4l0,0h-10.5l-2.6,4.4
	c-0.1,0.1-0.2,0.2-0.4,0.2c-0.3,0-0.5-0.1-0.5-0.3c0-0.1,1.3-2.3,3.8-6.6c2.5-4.3,4-6.7,4.5-7.4c0.1-0.2,0.3-0.3,0.4-0.3
	c0.2,0,0.3,0.1,0.4,0.3c0.4,0.7,1.9,3.1,4.5,7.4C148.6,18.7,149.8,20.8,149.8,20.9 M145.9,15.9l-4.8-8l-4.8,8H145.9z"/>
<path class="st0" d="M172.7,14c0,2-0.9,3.7-2.6,5.1c-1.7,1.4-3.8,2.1-6.2,2.1h-5.5c-0.3,0-0.4-0.1-0.4-0.4V7.1
	c0-0.2,0.1-0.4,0.4-0.4h5.5c2.4,0,4.5,0.7,6.2,2.1C171.8,10.3,172.7,12,172.7,14 M171.8,14c0-1.8-0.8-3.3-2.3-4.6
	c-1.5-1.3-3.4-1.9-5.6-1.9h-5.1v13.1h5.1c2.2,0,4-0.6,5.6-1.9C171.1,17.3,171.8,15.8,171.8,14"/>
<path class="st0" d="M181.7,20.9c0,0.2-0.1,0.4-0.4,0.4c-0.3,0-0.4-0.1-0.4-0.4V7.1c0-0.2,0.1-0.4,0.4-0.4c0.3,0,0.4,0.1,0.4,0.4
	V20.9z"/>
<path class="st0" d="M201.2,20.9c0,0.2-0.1,0.4-0.4,0.4h-9.2c-0.3,0-0.4-0.1-0.4-0.4V7.1c0-0.2,0.1-0.4,0.4-0.4h9.2
	c0.3,0,0.4,0.1,0.4,0.4c0,0.2-0.1,0.4-0.4,0.4H192v6.2h6.9c0.3,0,0.4,0.1,0.4,0.4c0,0.2-0.1,0.4-0.4,0.4H192v6.2h8.8
	C201,20.5,201.2,20.7,201.2,20.9"/>
<path class="st0" d="M223.1,20.9c0,0.2-0.1,0.4-0.4,0.4c-0.1,0-0.3-0.1-0.4-0.2L210.2,8.1v12.8c0,0.2-0.1,0.4-0.4,0.4
	c-0.3,0-0.4-0.1-0.4-0.4V7.1c0-0.2,0.1-0.4,0.4-0.4c0.1,0,0.3,0.1,0.4,0.2l12.1,12.9V7.1c0-0.2,0.1-0.4,0.4-0.4
	c0.3,0,0.4,0.1,0.4,0.4V20.9z"/>
<path class="st0" d="M243.2,7.1c0,0.2-0.1,0.4-0.4,0.4h-5.1v13.5c0,0.2-0.1,0.4-0.4,0.4c-0.3,0-0.4-0.1-0.4-0.4V7.5h-5.1
	c-0.3,0-0.4-0.1-0.4-0.4c0-0.2,0.1-0.4,0.4-0.4h11.1C243.1,6.7,243.2,6.9,243.2,7.1"/>
<line class="st0" x1="22" y1="30" x2="216.5" y2="30"/>
<path class="st0" d="M22,30c0,0,12.2-0.1,30.4-0.3c9.1,0,19.8-0.1,31.1-0.2c11.4,0,23.6,0,35.7-0.1c12.2,0,24.3,0,35.7,0.1
	c11.4,0.1,22,0.1,31.1,0.2c18.2,0.2,30.4,0.3,30.4,0.3s-12.2,0.1-30.4,0.3c-9.1,0-19.8,0.1-31.1,0.2c-11.4,0-23.6,0-35.7,0.1
	c-12.2,0-24.3,0-35.7-0.1c-11.4-0.1-22-0.1-31.1-0.2C34.2,30.1,22,30,22,30"/>
</svg>
