<?xml version="1.0" encoding="utf-8"?>
<!-- Generator: Adobe Illustrator 21.1.0, SVG Export Plug-In . SVG Version: 6.00 Build 0)  -->
<svg version="1.1" id="OBJECTS" xmlns="http://www.w3.org/2000/svg" xmlns:xlink="http://www.w3.org/1999/xlink" x="0px" y="0px"
	 viewBox="0 0 226.8 220.1" style="enable-background:new 0 0 226.8 220.1;" xml:space="preserve">
<style type="text/css">
	.st0{opacity:0.35;fill:url(#SVGID_1_);}
	.st1{opacity:0.55;fill:url(#SVGID_2_);}
</style>
<linearGradient id="SVGID_1_" gradientUnits="userSpaceOnUse" x1="0.5717" y1="105.1163" x2="220.5549" y2="105.1163" gradientTransform="matrix(-0.9892 -0.1464 0.1464 -0.9892 208.8055 232.017)">
	<stop  offset="0" style="stop-color:#54C1C8"/>
	<stop  offset="1" style="stop-color:#238488"/>
</linearGradient>
<path class="st0" d="M116.9,219.6c-58.5-4.6-81-38-90-79.5c-9-41.6-29.1-58.4-7.1-101.5C41.6-4.5,97.4-2.3,118.1,6.1
	s40.9,25.5,66.1,39.8c37.5,21.2,44.3,42.9,42.2,62.9c-3,28.3-18.3,29.2-27.7,59.4C187.6,204.2,162.6,223.2,116.9,219.6z"/>
<linearGradient id="SVGID_2_" gradientUnits="userSpaceOnUse" x1="0.5717" y1="110.1445" x2="227.0218" y2="110.1445" gradientTransform="matrix(-0.9892 -0.1464 0.1464 -0.9892 208.8055 232.017)">
	<stop  offset="0" style="stop-color:#54C1C8"/>
	<stop  offset="1" style="stop-color:#238488"/>
</linearGradient>
<path class="st1" d="M202.3,183.7c35.1-41.4,20.5-102.7-6-137C172.6,16,127-9.6,97.8,3.5C76.5,13,77.9,37,44.9,56
	C23.5,68.3,14.6,63,6.7,72.9c-18.8,23.6,3.2,90.3,50.2,121C96.2,219.5,164.8,227.8,202.3,183.7z"/>
</svg>
