<?xml version="1.0" encoding="utf-8"?>
<!-- Generator: Adobe Illustrator 21.1.0, SVG Export Plug-In . SVG Version: 6.00 Build 0)  -->
<svg version="1.1" id="OBJECTS" xmlns="http://www.w3.org/2000/svg" xmlns:xlink="http://www.w3.org/1999/xlink" x="0px" y="0px"
	 width="234.1px" height="218px" viewBox="0 0 234.1 218" style="enable-background:new 0 0 234.1 218;" xml:space="preserve">
<style type="text/css">
	.st0{opacity:0.34;fill:#D8EA26;}
	.st1{fill:#D8EA26;}
</style>
<path class="st0" d="M99.9,0.4c58.5-4,85.6,25.7,100.7,65.5c15,39.8,37.3,53.5,21.9,99.3c-15.4,45.8-70.9,51.9-92.6,46.5
	c-21.7-5.4-44.2-19.2-71.2-29.7c-40.2-15.5-50.1-35.9-50.9-56C6.6,97.6,21.6,94.5,26.4,63.3C32.2,25.9,54.1,3.5,99.9,0.4z"/>
<path class="st0" d="M20.7,48.4c-28.7,46.1-5.2,104.6,26,134.7c27.8,26.9,76.7,45.5,103.7,28.3c19.7-12.6,14.8-36,44.7-59.7
	c19.4-15.4,29-11.4,35.3-22.3C245.4,103.3,214,40.5,163,17.1C120.4-2.6,51.2-0.7,20.7,48.4z"/>
<circle class="st1" cx="218.5" cy="160" r="15.7"/>
<circle class="st1" cx="10.1" cy="59.8" r="10.1"/>
</svg>
