<?xml version="1.0" encoding="utf-8"?>
<!-- Generator: Adobe Illustrator 21.1.0, SVG Export Plug-In . SVG Version: 6.00 Build 0)  -->
<svg version="1.1" id="OBJECTS" xmlns="http://www.w3.org/2000/svg" xmlns:xlink="http://www.w3.org/1999/xlink" x="0px" y="0px"
	 width="234.1px" height="218px" viewBox="0 0 234.1 218" style="enable-background:new 0 0 234.1 218;" xml:space="preserve">
<style type="text/css">
	.st0{opacity:0.34;fill:#5CE0A4;}
	.st1{fill:#5CE0A4;}
</style>
<path class="st0" d="M134.3,0.4c-58.5-4-85.6,25.7-100.7,65.5c-15,39.8-37.3,53.5-21.9,99.3c15.4,45.8,70.9,51.9,92.6,46.5
	c21.7-5.4,44.2-19.2,71.2-29.7c40.2-15.5,50.1-35.9,50.9-56c1.1-28.4-13.9-31.6-18.7-62.8C201.9,25.9,180,3.5,134.3,0.4z"/>
<path class="st0" d="M213.5,48.4c28.7,46.1,5.2,104.6-26,134.7c-27.8,26.9-76.7,45.5-103.7,28.3c-19.7-12.6-14.8-36-44.7-59.7
	c-19.4-15.4-29-11.4-35.3-22.3c-15.1-26.1,16.3-88.8,67.3-112.3C113.8-2.6,182.9-0.7,213.5,48.4z"/>
<circle class="st1" cx="15.7" cy="160" r="15.7"/>
<circle class="st1" cx="224.1" cy="59.8" r="10.1"/>
</svg>
