<?xml version="1.0" encoding="utf-8"?>
<!-- Generator: Adobe Illustrator 21.1.0, SVG Export Plug-In . SVG Version: 6.00 Build 0)  -->
<svg version="1.1" id="Capa_1" xmlns="http://www.w3.org/2000/svg" xmlns:xlink="http://www.w3.org/1999/xlink" x="0px" y="0px"
	 viewBox="0 0 431.9 460" style="enable-background:new 0 0 431.9 460;" xml:space="preserve">
<g>
	<path d="M215.9,178c-30.9,0-56,25.1-56,56c0,30.9,25.1,56,56,56c30.9,0,56-25.1,56-56C271.9,203.1,246.8,178.1,215.9,178z
		 M215.9,274c-22.1,0-40-17.9-40-40c0-22.1,17.9-40,40-40c22.1,0,40,17.9,40,40C255.9,256.1,238,274,215.9,274z"/>
	<path d="M52.4,154h7.2c2.4,0,4.4-2,4.4-4.4v-7.2c0-2.4-2-4.4-4.4-4.4H44.4c-6.9,0-12.4,5.6-12.4,12.4v15.2c0,2.4,2,4.4,4.4,4.4h7.2
		c2.4,0,4.4-2,4.4-4.4v-7.2C48,156,50,154,52.4,154z"/>
	<path d="M43.6,298h-7.2c-2.4,0-4.4,2-4.4,4.4v15.2c0,6.9,5.6,12.4,12.4,12.4h15.2c2.4,0,4.4-2,4.4-4.4v-7.2c0-2.4-2-4.4-4.4-4.4
		h-7.2c-2.4,0-4.4-2-4.4-4.4v-7.2C48,300,46,298,43.6,298z"/>
	<path d="M0,114V354c0,4.4,3.6,8,8,8h415.9c4.4,0,8-3.6,8-8V114c0-4.4-3.6-8-8-8H8C3.6,106,0,109.6,0,114z M16,122h399.9V346H16V122
		z"/>
	<path d="M391.9,194c-26.5,0-48-21.5-48-48c0-4.4-3.6-8-8-8H96c-4.4,0-8,3.6-8,8c0,26.5-21.5,48-48,48c-4.4,0-8,3.6-8,8v64
		c0,4.4,3.6,8,8,8c26.5,0,48,21.5,48,48c0,4.4,3.6,8,8,8h239.9c4.4,0,8-3.6,8-8c0-26.5,21.5-48,48-48c4.4,0,8-3.6,8-8v-64
		C399.9,197.6,396.3,194,391.9,194z M383.9,258.5c-29,3.7-51.8,26.5-55.5,55.5H103.5C99.8,285,77,262.2,48,258.5v-49
		c29-3.7,51.8-26.5,55.5-55.5h224.9c3.7,29,26.5,51.8,55.5,55.5V258.5z"/>
	<path d="M387.5,138h-15.2c-2.4,0-4.4,2-4.4,4.4v7.2c0,2.4,2,4.4,4.4,4.4h7.2c2.4,0,4.4,2,4.4,4.4v7.2c0,2.4,2,4.4,4.4,4.4h7.2
		c2.4,0,4.4-2,4.4-4.4v-15.2C399.9,143.6,394.3,138,387.5,138z"/>
	<path d="M379.5,314h-7.2c-2.4,0-4.4,2-4.4,4.4v7.2c0,2.4,2,4.4,4.4,4.4h15.2c6.9,0,12.4-5.6,12.4-12.4v-15.2c0-2.4-2-4.4-4.4-4.4
		h-7.2c-2.4,0-4.4,2-4.4,4.4v7.2C383.9,312,381.9,314,379.5,314z"/>
	<path d="M110.2,50.8l3.6,6.2c1.2,2.1,3.8,2.8,5.9,1.7c50.8-27.9,111-32.3,165.2-12.4c3.6,1.3,3.9,6.3,0.4,8l-21.1,10.5
		c-2.2,1.1-3,3.7-2,5.9l3.2,6.5c1.1,2.2,3.7,3,5.9,2l44.1-22c1.9-0.9,3.4-2.6,4-4.6c0.7-2,0.5-4.2-0.4-6.1l-22-44.1
		c-1.1-2.2-3.7-3-5.9-2l-6.5,3.2c-2.2,1.1-3,3.7-2,5.9l6.7,13.5c1.7,3.5-1.6,7.3-5.3,6.1c-57-19-119.5-13.4-172.3,15.6
		C109.7,45.9,108.9,48.7,110.2,50.8z"/>
	<path d="M313.7,409.2l-3.6-6.2c-1.2-2.1-3.8-2.8-5.9-1.7c-50.8,27.9-111,32.3-165.2,12.4c-3.6-1.3-3.9-6.3-0.4-8l21.1-10.5
		c2.2-1.1,3-3.7,2-5.9l-3.2-6.5c-1.1-2.2-3.7-3-5.9-2l-44.1,22c-4,2-5.6,6.8-3.6,10.7l22,44.1c1.1,2.2,3.7,3,5.9,2l6.5-3.2
		c2.2-1.1,3-3.7,2-5.9l-6.7-13.5c-1.7-3.5,1.6-7.3,5.3-6.1c57,19,119.4,13.4,172.2-15.6C314.1,414.1,314.9,411.3,313.7,409.2z"/>
</g>
</svg>
