<?xml version="1.0" encoding="utf-8"?>
<!-- Generator: Adobe Illustrator 21.1.0, SVG Export Plug-In . SVG Version: 6.00 Build 0)  -->
<svg version="1.1" id="Capa_1" xmlns="http://www.w3.org/2000/svg" xmlns:xlink="http://www.w3.org/1999/xlink" x="0px" y="0px"
	 viewBox="0 0 512 374.3" style="enable-background:new 0 0 512 374.3;" xml:space="preserve">
<style type="text/css">
	.st0{fill:#FFFFFF;}
</style>
<g>
	<g>
		<path class="st0" d="M414.5,119.7h-32.2L392,8.1c0-0.2,0-0.4,0-0.6c0,0,0,0,0-0.1c0,0,0,0,0,0c0-3-1.8-5.7-4.5-6.9c0,0,0,0-0.1,0
			c-0.2-0.1-0.3-0.1-0.5-0.2c-0.1,0-0.1,0-0.2-0.1c-0.1,0-0.3-0.1-0.4-0.1c-0.1,0-0.2-0.1-0.3-0.1c-0.1,0-0.3,0-0.4-0.1
			c-0.1,0-0.2,0-0.4-0.1c0,0,0,0-0.1,0c-0.1,0-0.3,0-0.4,0c-0.1,0-0.2,0-0.3,0h-0.1c0,0,0,0,0,0H231c-4.1,0-7.5,3.4-7.5,7.5
			c0,4.1,3.4,7.5,7.5,7.5h145.3l-14.9,171.4c0,0,0,0,0,0l-3.8,43.2H97l4.4-45H151c4.1,0,7.5-3.4,7.5-7.5s-3.4-7.5-7.5-7.5h-48.2
			l9.2-95h79c4.1,0,7.5-3.4,7.5-7.5s-3.4-7.5-7.5-7.5h-77.5l4.3-44.7H201c4.1,0,7.5-3.4,7.5-7.5c0-4.1-3.4-7.5-7.5-7.5h-90
			c0,0,0,0,0,0c-3.5,0-6.6,2.5-7.3,5.9c0,0,0,0,0,0.1c0,0.2-0.1,0.4-0.1,0.6c0,0.1,0,0.1,0,0.2c0,0,0,0,0,0l-5.1,52.9H7.5
			C3.4,59.7,0,63,0,67.2s3.4,7.5,7.5,7.5H97l-9.2,95H61c-4.1,0-7.5,3.4-7.5,7.5s3.4,7.5,7.5,7.5h25.3l-5,51.7c0,0,0,0,0,0l-7.7,80
			c0,0,0,0,0,0l0,0c0,0.1,0,0.2,0,0.3c0,0.1,0,0.3,0,0.4c0,0,0,0,0,0c0,0.2,0,0.4,0,0.6c0,0.1,0,0.1,0,0.2c0,0.2,0.1,0.4,0.1,0.6
			c0,0.1,0,0.1,0,0.2c0,0.1,0.1,0.3,0.1,0.4c0,0.1,0,0.2,0.1,0.3c0,0,0,0.1,0,0.1c0.4,1.1,1,2.1,1.8,2.9c0,0,0,0,0,0
			c0.1,0.1,0.2,0.2,0.3,0.2c0.5,0.5,1.1,0.9,1.7,1.2c0.1,0.1,0.3,0.1,0.4,0.2c0,0,0.1,0,0.1,0c0.2,0.1,0.4,0.1,0.6,0.2
			c0,0,0,0,0.1,0c0.2,0.1,0.4,0.1,0.7,0.2c0,0,0.1,0,0.1,0c0.2,0,0.4,0.1,0.7,0.1c0,0,0,0,0,0c0.2,0,0.5,0,0.7,0c0,0,0,0,0,0h33.4
			c3.7,28,27.7,49.6,56.6,49.6c28.9,0,52.9-21.7,56.6-49.6h120.3c3.7,28,27.7,49.6,56.6,49.6c28.9,0,52.9-21.7,56.6-49.6h33.4
			c0,0,0,0,0,0c0.3,0,0.5,0,0.7,0c0,0,0.1,0,0.1,0c0.2,0,0.4,0,0.6-0.1c0.1,0,0.2,0,0.2-0.1c0.1,0,0.3-0.1,0.4-0.1
			c0.1,0,0.2-0.1,0.3-0.1c0.1,0,0.2-0.1,0.4-0.1c0.1,0,0.2-0.1,0.3-0.1c0.1-0.1,0.2-0.1,0.3-0.2c0.1-0.1,0.2-0.1,0.3-0.2
			c0.1-0.1,0.2-0.1,0.3-0.2c0.1-0.1,0.2-0.1,0.3-0.2c0.1-0.1,0.2-0.1,0.3-0.2c0.1-0.1,0.2-0.1,0.2-0.2c0.1-0.1,0.2-0.2,0.3-0.3
			c0.1-0.1,0.1-0.1,0.2-0.2c0.1-0.1,0.2-0.2,0.3-0.3c0.1-0.1,0.1-0.1,0.2-0.2c0.1-0.1,0.2-0.3,0.3-0.4c0,0,0.1-0.1,0.1-0.1
			c0.1-0.2,0.2-0.4,0.3-0.6c0,0,0,0,0,0c0.1-0.2,0.2-0.4,0.3-0.6c0-0.1,0-0.1,0.1-0.2c0.1-0.2,0.1-0.3,0.2-0.5
			c0-0.1,0.1-0.2,0.1-0.3c0-0.1,0.1-0.2,0.1-0.4c0-0.1,0-0.2,0.1-0.3c0-0.1,0-0.2,0.1-0.3c0.3-2.5,6.2-49.7,8.8-80.1
			c0,0,0-0.1,0-0.1c0.8-8.8,1.2-16.2,1.2-20.7C512,163.4,468.3,119.7,414.5,119.7z M381,134.7h30.7l-3.9,45H377L381,134.7z
			 M171,359.3c-23.2,0-42.1-18.9-42.1-42.1s18.9-42.1,42.1-42.1s42.1,18.9,42.1,42.1S194.2,359.3,171,359.3z M404.5,359.3
			c-23.2,0-42.1-18.9-42.1-42.1s18.9-42.1,42.1-42.1c23.2,0,42.1,18.9,42.1,42.1S427.7,359.3,404.5,359.3z M487.9,309.7h-26.8
			c-3.7-28-27.7-49.6-56.6-49.6c-28.9,0-52.9,21.7-56.6,49.6H227.6c-3.7-28-27.7-49.6-56.6-49.6s-52.9,21.7-56.6,49.6H89.3l6.3-65
			h268.9v0c0,0,0,0,0,0c0.3,0,0.5,0,0.7,0c0,0,0.1,0,0.1,0c0.2,0,0.4-0.1,0.6-0.1c0.1,0,0.2,0,0.2-0.1c0.1,0,0.3-0.1,0.4-0.1
			c0.1,0,0.2-0.1,0.3-0.1c0.1,0,0.3-0.1,0.4-0.1c0.1,0,0.2-0.1,0.3-0.1c0.1-0.1,0.2-0.1,0.3-0.2c0.1-0.1,0.2-0.1,0.3-0.2
			c0.1-0.1,0.2-0.1,0.3-0.2c0.1-0.1,0.2-0.1,0.3-0.2c0.1-0.1,0.2-0.1,0.3-0.2c0.1-0.1,0.2-0.1,0.3-0.2c0.1-0.1,0.2-0.2,0.3-0.3
			c0.1-0.1,0.2-0.1,0.2-0.2c0.1-0.1,0.2-0.2,0.3-0.3c0.1-0.1,0.1-0.2,0.2-0.2c0.1-0.1,0.2-0.2,0.2-0.3c0.1-0.1,0.1-0.2,0.2-0.2
			c0.1-0.1,0.1-0.2,0.2-0.3c0.1-0.1,0.1-0.2,0.1-0.3c0.1-0.1,0.1-0.2,0.2-0.4c0-0.1,0.1-0.2,0.1-0.3c0-0.1,0.1-0.2,0.1-0.4
			c0-0.1,0.1-0.2,0.1-0.3c0-0.1,0.1-0.2,0.1-0.4c0-0.1,0.1-0.2,0.1-0.4c0-0.1,0-0.2,0.1-0.4c0-0.1,0-0.2,0.1-0.4c0,0,0,0,0-0.1
			l3.8-43.1h38.8c23,0,33.3,11.9,44.3,24.5c9.1,10.4,19.2,22,36.3,24.8C493,267.1,489.4,296.7,487.9,309.7z M496.4,229
			c-11.1-2.3-18-10.1-26.3-19.7c-10.4-11.9-23.1-26.5-47.4-29.2l3.9-44.5c39.8,5.9,70.4,40.2,70.4,81.6
			C497,220,496.8,224.1,496.4,229z"/>
	</g>
</g>
<g>
	<g>
		<path class="st0" d="M171,289.7c-15.2,0-27.5,12.3-27.5,27.5s12.3,27.5,27.5,27.5s27.5-12.3,27.5-27.5
			C198.5,302,186.2,289.7,171,289.7z M171,329.7c-6.9,0-12.5-5.6-12.5-12.5s5.6-12.5,12.5-12.5s12.5,5.6,12.5,12.5
			S177.9,329.7,171,329.7z"/>
	</g>
</g>
<g>
	<g>
		<path class="st0" d="M404.5,289.7c-15.2,0-27.5,12.3-27.5,27.5s12.3,27.5,27.5,27.5s27.5-12.3,27.5-27.5
			C432,302,419.7,289.7,404.5,289.7z M404.5,329.7c-6.9,0-12.5-5.6-12.5-12.5s5.6-12.5,12.5-12.5s12.5,5.6,12.5,12.5
			S411.4,329.7,404.5,329.7z"/>
	</g>
</g>
<g>
	<g>
		<path class="st0" d="M71,119.7H34.3c-4.1,0-7.5,3.4-7.5,7.5s3.4,7.5,7.5,7.5H71c4.1,0,7.5-3.4,7.5-7.5S75.1,119.7,71,119.7z"/>
	</g>
</g>
</svg>
