<svg xmlns="http://www.w3.org/2000/svg" viewBox="0 0 364.4 480.4"><defs><style>.cls-1{fill:#23dde9;}</style></defs><title>Asset 3</title><g id="Layer_2" data-name="Layer 2"><g id="Capa_1" data-name="Capa 1"><path class="cls-1" d="M188.08,186.25,158.2,168.48V154.56a14.49,14.49,0,0,0,7.4-12.66V127.5A14.62,14.62,0,0,0,151,112.9H54.2a14.62,14.62,0,0,0-14.6,14.6v14.4A14.51,14.51,0,0,0,47,154.56v13.92L17.13,186.25A35.05,35.05,0,0,0,0,216.3V448a32.44,32.44,0,0,0,32.4,32.4H172.8A32.44,32.44,0,0,0,205.2,448V216.3A35.07,35.07,0,0,0,188.08,186.25Zm-15.38,276H32.4A14.22,14.22,0,0,1,18.2,448V432.7H187v12.8h-.1V448A14.22,14.22,0,0,1,172.7,462.2ZM57.8,131.1h89.5v7.1H57.8Zm82.1,25.3v8.1H65.2v-8.1ZM18.2,216.3a17,17,0,0,1,8.17-14.45l32.21-19h87.93l32.2,19.14a17,17,0,0,1,8.19,14.46v2.1H60.5a8.58,8.58,0,0,0-1.35.1H18.2Zm0,20.5H72.7a8.58,8.58,0,0,0,1.35-.1H186.9V414.4H18.2Z"/><path class="cls-1" d="M360.17,98.23A14.86,14.86,0,0,0,349.5,93.8h-7.07L340.7,34.53a35.57,35.57,0,0,0-71.1,0L267.87,93.8H260.8a15,15,0,0,0-15,15v33.8a15,15,0,0,0,15,15h15.8V367.7a40.46,40.46,0,0,0,1.06,9.45l6.8,30.19a19.32,19.32,0,0,0,37.68,0l6.79-30.16A40.51,40.51,0,0,0,330,367.7V320a8.2,8.2,0,0,0,.1-1.32V157.6h19.3a15,15,0,0,0,15-15V108.84A14.7,14.7,0,0,0,360.17,98.23ZM305.2,17a18.14,18.14,0,0,1,18.3,17.88l1.82,58.92H285.27l1.63-58.93A18.23,18.23,0,0,1,305.2,17Zm7.7,279.29a8.08,8.08,0,0,0-.1,1.31v70.1a22.84,22.84,0,0,1-.64,5.55l-6.79,30.17a2.12,2.12,0,0,1-2.07,1.68,2,2,0,0,1-2-1.55l-6.83-30.36a22.37,22.37,0,0,1-.63-5.49V157.6h19.1Zm34.4-156H263.1V110.9h84.2Z"/></g></g></svg>