<?xml version="1.0" encoding="utf-8"?>
<!-- Generator: Adobe Illustrator 21.1.0, SVG Export Plug-In . SVG Version: 6.00 Build 0)  -->
<svg version="1.1" id="Capa_1" xmlns="http://www.w3.org/2000/svg" xmlns:xlink="http://www.w3.org/1999/xlink" x="0px" y="0px"
	 viewBox="0 0 438 500" style="enable-background:new 0 0 438 500;" xml:space="preserve">
<style type="text/css">
	.st0{fill:#FFFFFF;}
</style>
<g>
	<g>
		<g>
			<path class="st0" d="M438,341c0-9.6-3.5-18.8-10-26l-3.6-4l3.6-4c6.4-7.2,10-16.4,10-26c0-21.5-17.5-39-39-39h-95.6l2.6-7.9
				c8.2-24.9,12-59,12-74.1v-15c0-29.8-24.2-54-54-54h-15c-4.1,0-7.7,2.8-8.7,6.8l-8.2,32.7c-5.9,23.5-18.3,48.6-34,68.7
				c-17.1,21.9-36.9,36.5-55.8,41.1l-5.1,1.2l-1.9-4.9c-2.9-7.2-7.7-13.3-14.1-17.8c-6.5-4.5-14.2-6.9-22.2-6.9H9c-5,0-9,4-9,9v270
				c0,5,4,9,9,9h90c14.9,0,28.8-8.7,35.2-22.2l2.3-4.8l5,1.7l51.5,17.2c16.2,5.4,33.2,8.2,50.3,8.2H369c21.5,0,39-17.5,39-39
				c0-5-0.9-9.8-2.7-14.4l-2.5-6.2l6.5-1.8C426.2,434,438,418.5,438,401c0-9.6-3.5-18.8-10-26l-3.6-4l3.6-4
				C434.5,359.8,438,350.6,438,341z M120,461c0,11.6-9.4,21-21,21H18V230h81c11.6,0,21,9.4,21,21V461z M369,320h30
				c11.6,0,21,9.4,21,21s-9.4,21-21,21h-30c-5,0-9,4-9,9s4,9,9,9h30c11.6,0,21,9.4,21,21s-9.4,21-21,21h-30c-5,0-9,4-9,9s4,9,9,9
				c11.6,0,21,9.4,21,21s-9.4,21-21,21H243.3c-15.2,0-30.2-2.4-44.6-7.2l-56.6-18.9l-4.1-1.4V259.6l4.9-0.9
				c22.1-4.2,44.2-18.6,63.9-41.8c19.7-23.1,35.7-53.8,42.8-82l5.3-21.3l1.1-4.5h8c19.8,0,36,16.2,36,36v15
				c0,21.6-6.5,60.6-14.9,78.5l-1.6,3.5H249c-5,0-9,4-9,9s4,9,9,9h150c11.6,0,21,9.4,21,21s-9.4,21-21,21h-30c-5,0-9,4-9,9
				S364,320,369,320z"/>
		</g>
	</g>
</g>
<g>
	<g>
		<g>
			<path class="st0" d="M78,431c0,5-4,9-9,9s-9-4-9-9s4-9,9-9S78,426,78,431z"/>
		</g>
	</g>
</g>
<g>
	<g>
		<g>
			<path class="st0" d="M288,9v31c0,5-4,9-9,9s-9-4-9-9V9c0-5,4-9,9-9S288,4,288,9z"/>
		</g>
	</g>
</g>
<g>
	<g>
		<g>
			<path class="st0" d="M211.1,64.4c3.5,3.5,3.5,9.2,0,12.7c-1.7,1.7-4,2.6-6.4,2.6c-2.4,0-4.7-0.9-6.4-2.6l-21.2-21.2
				c-1.7-1.7-2.6-4-2.6-6.4c0-2.4,0.9-4.7,2.6-6.4s4-2.6,6.4-2.6c2.4,0,4.7,0.9,6.4,2.6L211.1,64.4z"/>
			<path class="st0" d="M194.2,38.9L194.2,38.9"/>
		</g>
	</g>
</g>
<g>
	<g>
		<g>
			<path class="st0" d="M380.8,55.9l-21.2,21.2c-1.7,1.7-4,2.6-6.4,2.6c-2.4,0-4.7-0.9-6.4-2.6s-2.6-4-2.6-6.4
				c0-2.4,0.9-4.7,2.6-6.4l21.2-21.2c1.7-1.7,4-2.6,6.4-2.6c2.4,0,4.7,0.9,6.4,2.6C384.3,46.7,384.3,52.4,380.8,55.9z"/>
		</g>
	</g>
</g>
</svg>
